<?xml version="1.0" encoding="utf-8"?>
<!-- Generator: Adobe Illustrator 19.2.1, SVG Export Plug-In . SVG Version: 6.00 Build 0)  -->
<svg version="1.1" id="Layer_1" xmlns="http://www.w3.org/2000/svg" xmlns:xlink="http://www.w3.org/1999/xlink" x="0px" y="0px"
	 viewBox="0 0 3575.1 2260.4" style="enable-background:new 0 0 3575.1 2260.4;" xml:space="preserve">
<style type="text/css">
	.st0{fill:none;}
	.st1{fill:#333333;}
	.st2{fill:#FFFFFF;}
	.st3{fill:url(#SVGID_1_);}
	.st4{fill:url(#SVGID_2_);}
	.st5{fill:url(#SVGID_3_);}
	.st6{fill:url(#SVGID_4_);}
	.st7{fill:url(#SVGID_5_);}
	.st8{fill:none;stroke:#000000;stroke-width:15;stroke-miterlimit:10;}
	.st9{fill:none;stroke:#000000;stroke-width:23;stroke-miterlimit:10;}
</style>
<pattern  y="2260.4" width="133" height="112" patternUnits="userSpaceOnUse" id="a" viewBox="0 -135.2 133 112" style="overflow:visible;">
	<g>
		<rect y="-135.2" class="st0" width="133" height="112"/>
		<rect y="-135.2" class="st0" width="133" height="112"/>
		<rect y="-135.2" class="st0" width="133" height="112"/>
		<polygon points="99.6,-46.4 66.1,-25 33.1,-46.4 0,-25 0,0 33.1,-21 66.1,0 99.6,-21 133,0 133,-25 		"/>
		<polygon points="99.6,-102.4 66.1,-80.9 33.1,-102.4 0,-80.9 0,-56 33.1,-77 66.1,-56 99.6,-77 133,-56 133,-80.9 		"/>
		<polygon points="99.6,-158.4 66.1,-136.9 33.1,-158.4 0,-136.9 0,-112 33.1,-133 66.1,-112 99.6,-133 133,-112 133,-136.9 		"/>
	</g>
</pattern>
<pattern  y="2260.4" width="102" height="108" patternUnits="userSpaceOnUse" id="b" viewBox="37.1 -147.4 102 108" style="overflow:visible;">
	<g>
		<rect x="37.1" y="-147.4" class="st0" width="102" height="108"/>
		<rect x="37.1" y="-147.4" class="st0" width="102" height="108"/>
		<rect x="37.1" y="-147.4" class="st0" width="102" height="108"/>
		<polyline class="st1" points="234,-90.9 234,-69.9 102,0 102,-20.9 234,-90.8 		"/>
		<polyline class="st1" points="132,-90.9 132,-69.9 0,0 0,-20.9 132,-90.8 		"/>
		<polyline class="st1" points="234,-144.9 234,-123.9 102,-54 102,-74.9 234,-144.8 		"/>
		<polyline class="st1" points="132,-144.9 132,-123.9 0,-54 0,-74.9 132,-144.8 		"/>
		<polyline class="st1" points="234,-198.9 234,-177.9 102,-108 102,-128.9 234,-198.8 		"/>
		<polyline class="st1" points="132,-198.9 132,-177.9 0,-108 0,-128.9 132,-198.8 		"/>
	</g>
</pattern>
<pattern  y="2260.4" width="81" height="56.7" patternUnits="userSpaceOnUse" id="c" viewBox="0 -56.7 81 56.7" style="overflow:visible;">
	<g>
		<rect y="-56.7" class="st0" width="81" height="56.7"/>
		<rect y="-56.7" class="st0" width="81" height="56.7"/>
		<rect y="-56.7" class="st0" width="81" height="56.7"/>
		<path class="st1" d="M81-30.5V-10c-22.7,0-24.9-15.5-40.5-15.5C25.1-25.5,13.8-10,0-10v-20.5c12.5,0,20.5-14.9,40.5-14.9
			C61.8-45.4,66.8-30.5,81-30.5z"/>
	</g>
</pattern>
<pattern  y="2260.4" width="81" height="56.7" patternUnits="userSpaceOnUse" id="d" viewBox="0 -56.7 81 56.7" style="overflow:visible;">
	<g>
		<rect y="-56.7" class="st0" width="81" height="56.7"/>
		<rect y="-56.7" class="st0" width="81" height="56.7"/>
		<rect y="-56.7" class="st0" width="81" height="56.7"/>
		<path class="st1" d="M81-30.5V-10c-22.7,0-24.9-15.5-40.5-15.5C25.1-25.5,13.8-10,0-10v-20.5c12.5,0,20.5-14.9,40.5-14.9
			C61.8-45.4,66.8-30.5,81-30.5z"/>
	</g>
</pattern>
<pattern  y="2260.4" width="56" height="81" patternUnits="userSpaceOnUse" id="e" viewBox="56.3 -81 56 81" style="overflow:visible;">
	<g>
		<rect x="56.3" y="-81" class="st0" width="56" height="81"/>
		<rect x="56.3" y="-81" class="st0" width="56" height="81"/>
		<rect x="56.3" y="-81" class="st0" width="56" height="81"/>
		<polygon class="st1" points="112,-81 142.5,-81 168.7,-40.5 142.5,0 112,0 137.6,-40.5 		"/>
		<polygon class="st1" points="56,-81 86.5,-81 112.7,-40.5 86.5,0 56,0 81.6,-40.5 		"/>
		<polygon class="st1" points="0,-81 30.5,-81 56.7,-40.5 30.5,0 0,0 25.6,-40.5 		"/>
	</g>
</pattern>
<title>logo_big</title>
<path id="c-back" class="st2" d="M246.9,853.9c0-23.2-0.5-41.6-1.4-55.4c-1-14-3.3-27.8-7-41.3c-3.8-13.8-9.6-23.8-17.4-30.1
	s-18.3-9.4-31.5-9.4c-10,0-18.8,1.4-26.3,4.2c-7.5,2.8-13.8,8.1-17.9,15c-4,6.5-7.6,13.3-10.8,20.2c-2.8,6.3-4.7,15.8-5.6,28.7
	s-1.6,23.2-1.9,31c-0.3,7.8-0.5,19.9-4.2,36v298.9c3.7,45.9,7.5,78.3,15,97.4s24.1,28.7,49.8,28.7c8.4,0.1,16.8-1,24.9-3.3
	c7-2,13-6.6,16.9-12.8c3.7-5.6,7-11.4,9.9-17.4c2.5-5.3,4.4-14.1,5.6-26.3c1.3-12.2,1.9-22.2,1.9-30.1v-42.7l123.1,8.5
	c1.9,38.2,0.2,71.6-5.2,100.1c-5.3,28.5-13,51-23,67.7c-10,16.6-22.4,30.1-37.1,40.4s-29,17.2-42.8,20.6
	c-14.8,3.6-29.9,5.3-45.1,5.2h-48.8c-15.3,0.1-30.6-1.6-45.6-5.2c-14.1-3.5-28.8-10.2-44.2-20.2s-28.4-23.3-39-39.9
	c-10.7-16.6-19.4-39-26.3-67.2S2.6,1194,2.6,1156.5V840.8c0-75.8,15.2-130.6,45.6-164.4s71.6-50.7,123.6-50.7h33.8
	c50.1,0,90,18.3,119.8,55c29.8,36.7,44.6,91.3,44.6,164L246.9,853.9z"/>
<path id="o-back" class="st2" d="M623.2,1483h-50.7c-114,0-171-75.5-171-226.4V939.9c0-75.2,16.6-130,49.8-164.4
	c33.2-34.5,76.4-51.7,129.7-51.7h33.8c50.7,0,91.1,17.8,121.2,53.6c30.1,35.7,45.1,89.9,45.1,162.5v316.6c0,38.2-3.3,71.3-9.9,99.1
	c-6.6,27.9-14.7,49.8-24.4,65.8c-9.2,15.4-21.7,28.6-36.6,38.5c-14.7,9.7-28.8,16-42.3,18.8C653.2,1481.7,638.2,1483.1,623.2,1483z
	 M594.1,1376.8c10.7,0,19.6-0.9,26.8-2.8c7.1-1.8,13.4-5.9,17.8-11.7c4.2-5.1,7.8-10.6,10.8-16.4c2.5-5,4.2-13.5,5.2-25.4
	s1.6-21.8,1.9-29.6c0.3-7.8,0.5-20.5,0.5-38.1V952.2c0.1-18.2-0.6-36.4-2.3-54.5c-1.4-14.3-4.3-28.5-8.5-42.3
	c-4.1-13.2-10.5-23-19.3-29.6s-19.7-9.9-32.9-9.9c-45.7,0-68.6,45.4-68.6,136.2v329.3c0,6,0.3,14.1,0.9,24.4
	c0.6,10.3,1.6,17.7,2.8,22.1c1.2,4.4,3,10,5.2,16.9c2.2,6.9,4.8,11.7,8,14.6c3.8,3.3,7.9,6.3,12.2,8.9c5.3,3.3,11.2,5.5,17.4,6.6
	C579.3,1376.3,586.7,1376.9,594.1,1376.8L594.1,1376.8L594.1,1376.8z"/>
<path class="st2" d="M925.4,833.8h156.9l121.2,762H1086l-28.2-161.6H937.6l-28.2,161.6H792.9L925.4,833.8z M947,1358.1h101.5
	l-51.7-319.4L947,1358.1z"/>
<path class="st2" d="M1429.7,1389.5v218.9h208.6v111.8h-332.6v-762h124L1429.7,1389.5L1429.7,1389.5z"/>
<path class="st2" d="M2075.9,1279.3v218.9h208.6V1610h-332.6V848h124V1279.3L2075.9,1279.3z"/>
<path class="st2" d="M2336.6,1510.6V748.7h122.1v762L2336.6,1510.6L2336.6,1510.6z"/>
<path class="st2" d="M2923.6,635.7h117.4v762h-124l-197.3-427.5l-0.9,427.5h-128.8v-762H2716l207.6,468.8L2923.6,635.7L2923.6,635.7
	L2923.6,635.7z"/>
<path class="st2" d="M3466,602.8h-208.6v203h154.1V926h-154.1v195.4h217l-2.8,122.1h-338.2V481.7H3466V602.8z"/>
<pattern  id="SVGID_1_" xlink:href="#a" patternTransform="matrix(1 0 0 1 106.87 -62.66)">
</pattern>
<path class="st3" d="M2059.2,1298.9v201.8h192.3v103.1h-306.6V901.4h114.3V1298.9L2059.2,1298.9L2059.2,1298.9z"/>
<pattern  id="SVGID_2_" xlink:href="#b" patternTransform="matrix(1 0 0 1 195.87 -174.66)">
</pattern>
<path class="st4" d="M1453.9,1366.9v201.8h192.3v103.1h-306.6V969.4h114.3L1453.9,1366.9L1453.9,1366.9L1453.9,1366.9z"/>
<pattern  id="SVGID_3_" xlink:href="#c" patternTransform="matrix(1 0 0 1 228.87 -117.9901)">
</pattern>
<path class="st5" d="M3455.8,621.7h-192.3v187.1h142.1v110.9h-142.1v180.2h200.1l-2.6,112.6h-311.8V510h306.6L3455.8,621.7
	L3455.8,621.7L3455.8,621.7z"/>
<g>
	
		<rect x="754.1" y="1052" transform="matrix(0.9613 -0.2756 0.2756 0.9613 -271.5972 252.5399)" class="st1" width="17.1" height="81.1"/>
	
		<rect x="409" y="873.1" transform="matrix(0.7927 -0.6096 0.6096 0.7927 -444.2432 456.8171)" class="st1" width="81.1" height="17.1"/>
	
		<rect x="409.1" y="1287" transform="matrix(0.4526 -0.8917 0.8917 0.4526 -909.1213 1110.1029)" class="st1" width="81.1" height="17.1"/>
	
		<rect x="467" y="904.1" transform="matrix(0.9994 -3.489950e-002 3.489950e-002 0.9994 -32.6781 17.172)" class="st1" width="17.1" height="81.1"/>
	
		<rect x="467.1" y="842.1" transform="matrix(7.793712e-002 -0.997 0.997 7.793712e-002 -379.9728 1290.3978)" class="st1" width="81.1" height="17.1"/>
	
		<rect x="407.9" y="1159" transform="matrix(1.999600e-002 -0.9998 0.9998 1.999600e-002 -727.882 1592.5416)" class="st1" width="81.1" height="17.1"/>
	
		<rect x="390.1" y="948.2" transform="matrix(0.4313 -0.9022 0.9022 0.4313 -618.2505 932.5712)" class="st1" width="81.1" height="17.1"/>
	
		<rect x="477.1" y="1089" transform="matrix(0.9892 -0.1466 0.1466 0.9892 -160.3497 83.3995)" class="st1" width="17.1" height="81.1"/>
	
		<rect x="390" y="1034.1" transform="matrix(0.6537 -0.7568 0.7568 0.6537 -639.9344 686.9561)" class="st1" width="81.1" height="17.1"/>
	
		<rect x="423.1" y="801.1" transform="matrix(0.4075 -0.9132 0.9132 0.4075 -464.6561 903.0312)" class="st1" width="81.1" height="17.1"/>
	
		<rect x="404" y="1210.1" transform="matrix(0.9994 -3.489950e-002 3.489950e-002 0.9994 -43.3955 15.1593)" class="st1" width="17.1" height="81.1"/>
	
		<rect x="382.1" y="1121.1" transform="matrix(0.2108 -0.9775 0.9775 0.2108 -770.7456 1304.6442)" class="st1" width="81.1" height="17.1"/>
	
		<rect x="659" y="1112" transform="matrix(0.1447 -0.9895 0.9895 0.1447 -510.41 1650.6022)" class="st1" width="81.1" height="17.1"/>
	
		<rect x="693" y="1008.1" transform="matrix(0.7927 -0.6096 0.6096 0.7927 -467.6788 657.9335)" class="st1" width="81.1" height="17.1"/>
	
		<rect x="538.1" y="1449" transform="matrix(0.5985 -0.8011 0.8011 0.5985 -935.3569 1048.8005)" class="st1" width="81.1" height="17.1"/>
	
		<rect x="674" y="921.1" transform="matrix(0.9994 -3.489950e-002 3.489950e-002 0.9994 -33.1458 24.4068)" class="st1" width="17.1" height="81.1"/>
	
		<rect x="671.1" y="747" transform="matrix(0.9988 -4.937274e-002 4.937274e-002 0.9988 -38.0538 34.5171)" class="st1" width="17.1" height="81.1"/>
	
		<rect x="691" y="921.6" transform="matrix(1.999600e-002 -0.9998 0.9998 1.999600e-002 -213.0017 1642.9625)" class="st1" width="81.1" height="17.1"/>
	
		<rect x="446" y="1017" transform="matrix(0.4311 -0.9023 0.9023 0.4311 -648.4957 1022.4225)" class="st1" width="81.1" height="17.1"/>
	
		<rect x="694.7" y="1369" transform="matrix(0.2496 -0.9684 0.9684 0.2496 -782.149 1745.7642)" class="st1" width="81.2" height="17.1"/>
	
		<rect x="495.1" y="760.1" transform="matrix(0.6537 -0.7568 0.7568 0.6537 -396.2099 671.5337)" class="st1" width="81.1" height="17.1"/>
	
		<rect x="659" y="854" transform="matrix(0.2343 -0.9722 0.9722 0.2343 -302.8898 1340.5891)" class="st1" width="81.1" height="17.1"/>
	
		<rect x="684" y="1280.1" transform="matrix(0.9994 -3.489950e-002 3.489950e-002 0.9994 -45.6684 24.9739)" class="st1" width="17.1" height="81.1"/>
	
		<rect x="684.1" y="1175.1" transform="matrix(0.2108 -0.9775 0.9775 0.2108 -585.1956 1642.478)" class="st1" width="81.1" height="17.1"/>
	
		<rect x="427.1" y="1365.1" transform="matrix(0.8663 -0.4995 0.4995 0.8663 -643.9412 405.5508)" class="st1" width="17.1" height="81.1"/>
	
		<rect x="456" y="1247" transform="matrix(2.809611e-002 -0.9996 0.9996 2.809611e-002 -772.4337 1716.6875)" class="st1" width="81.1" height="17.1"/>
	
		<rect x="624" y="1471.1" transform="matrix(0.8414 -0.5404 0.5404 0.8414 -694.1754 593.7827)" class="st1" width="81.1" height="17.1"/>
	
		<rect x="525" y="1371" transform="matrix(0.1583 -0.9874 0.9874 0.1583 -944.6081 1714.8893)" class="st1" width="17.1" height="81.1"/>
	
		<rect x="618.1" y="1411" transform="matrix(0.6816 -0.7317 0.7317 0.6816 -828.9648 933.8643)" class="st1" width="81.1" height="17.1"/>
	
		<rect x="593.1" y="750.1" transform="matrix(0.2373 -0.9714 0.9714 0.2373 -309.2121 1187.4131)" class="st1" width="17.1" height="81.1"/>
	
		<rect x="739.1" y="781" transform="matrix(0.8761 -0.4821 0.4821 0.8761 -303.4485 462.1626)" class="st1" width="17.1" height="81.1"/>
	
		<rect x="739.1" y="1244.1" transform="matrix(0.8663 -0.4995 0.4995 0.8663 -541.7772 545.2333)" class="st1" width="17.1" height="81.1"/>
	
		<rect x="435" y="1345" transform="matrix(0.2014 -0.9795 0.9795 0.2014 -945.9797 1546.7426)" class="st1" width="81.1" height="17.1"/>
	
		<rect x="730.6" y="1197.2" transform="matrix(3.001518e-002 -0.9995 0.9995 3.001518e-002 -457.249 1940.3833)" class="st1" width="81.2" height="17.1"/>
	
		<rect x="613.1" y="706" transform="matrix(0.5783 -0.8158 0.8158 0.5783 -346.9595 821.9855)" class="st1" width="17.1" height="81.1"/>
	
		<rect x="466.1" y="1440" transform="matrix(0.9902 -0.1397 0.1397 0.9902 -197.3849 84.9801)" class="st1" width="81.1" height="17.1"/>
</g>
<path d="M2971.9,1322.2V724.8c0-13.5-12-26.5-26-25.8c-14,0.6-26,11.4-26,25.8V1268c-9-19.8-17.7-39.6-26.6-59.4
	c-12.4-27.3-24.6-54.7-37-82c-13.5-29.9-27-59.8-40.5-89.7c-13.7-30.4-27.5-60.7-41.2-91.1l-38.4-85l-32.5-71.9l-23.3-51.5
	c-3.7-8.2-7.1-16.5-11.1-24.6c-0.2-0.3-0.3-0.7-0.5-1c-2.2-4.9-7.6-8.6-12.4-10.6c-5.1-2.2-11.7-3.1-17.2-1.3
	c-10.9,3.5-19.3,13.2-19.3,24.9v601.7c0,8.1,0.2,16.3,0.4,24.4c0,0.3,0.2,0.7,0.2,1c0,13.5,11.8,26.5,25.7,25.8s25.7-11.4,25.7-25.8
	V844.3c3,5.3,5,10.6,7.4,15.9c11.8,26,23.6,52,35.4,78c13,28.8,26.1,57.6,39.2,86.5c13.3,29.3,26.5,58.6,39.8,87.9l37.9,83.7
	l32.8,72.5l25.2,55.6l14.5,32c0.8,1.7,1.4,3.5,2.3,5.1c7.6,14.3,25.2,20.9,40.5,16.6s24.9-18.4,25.3-33.9
	C2972.1,1336.8,2971.9,1329.5,2971.9,1322.2z M2953.9,1344c-0.3,7.6-4.6,14.2-12,16.5c-7.8,2.4-16.2-1.1-20.1-8.2
	c-0.9-1.6-1.5-3.4-2.3-5.1l-14.5-32l-25.2-55.6l-32.8-72.5l-37.9-83.7l-39.8-87.9l-39.1-86.5l-35.3-78c-9.6-21.3-19.4-42.5-29-63.8
	c-4-8.9-8.2-17.7-12.2-26.6v591c0,11-15.2,11-15.2,0c-0.2-0.3-0.3-0.6-0.4-0.9c-0.2-8.1-0.4-16.1-0.4-24.2V724.8
	c0-7.2,11.6-11.2,14.8-3.9c0.6,1.2,1.3,2.5,1.9,3.7c4.4,9.7,8.9,19.5,13.3,29.2l24,53c10.6,23.4,21.2,46.9,31.8,70.3l37.1,82
	l39.3,86.9l39.1,86.3l35.7,78.8l29.8,65.9l20.9,46.2c3.1,6.9,5.9,14,9.4,20.7c0.1,0.2,0.1,0.3,0.2,0.5c0.2,0.3,0.4,0.6,0.5,0.9
	c0.6,0.8,0.3,0.4,1.3,0.4c0.3-0.1,0.7-0.2,1-0.3c0.3-0.4,0.4-0.8,0.4-1.3c0-0.1-0.3-0.3-0.3-0.4c0-2.6-0.3-5.1-0.3-7.7V724.7
	c0-10,16-10,16,0v597.6C2953.9,1329.5,2954.2,1336.8,2953.9,1344z"/>
<polygon class="st1" points="2476.8,1409.5 2364.9,1353 2364.9,1469.4 "/>
<polygon class="st1" points="2364.9,1238.4 2364.9,1353 2476.8,1293.1 2366.6,1237.4 2476.8,1178.4 2364.9,1121.9 2364.9,1236.6 "/>
<polygon class="st1" points="2476.8,1062 2364.9,1005.5 2364.9,1121.9 "/>
<polygon class="st1" points="2364.9,889.1 2364.9,1005.5 2476.8,945.6 "/>
<polygon class="st1" points="2364.9,772.6 2364.9,889.1 2476.8,829.2 "/>
<path d="M2677,1681.4h-9.3c-21,0-31.5-13.9-31.5-41.7v-58.3c0-13.8,3.1-23.9,9.2-30.3c6.1-6.3,14.1-9.5,23.9-9.5h6.2
	c9.3,0,16.8,3.3,22.3,9.9c5.5,6.6,8.3,16.6,8.3,29.9v58.3c0.1,6.1-0.5,12.3-1.8,18.3c-0.9,4.2-2.4,8.3-4.5,12.1
	c-1.7,2.8-4,5.3-6.8,7.1c-2.4,1.6-5,2.8-7.8,3.5C2682.5,1681.2,2679.8,1681.5,2677,1681.4z M2671.7,1661.9c1.7,0,3.3-0.1,4.9-0.5
	c1.3-0.3,2.5-1.1,3.3-2.2c0.8-0.9,1.4-1.9,2-3c0.6-1.5,0.9-3.1,1-4.7c0.2-2.2,0.3-4,0.4-5.4c0.1-1.4,0.1-3.8,0.1-7v-55.4
	c0-3.3-0.1-6.7-0.4-10c-0.3-2.6-0.8-5.3-1.6-7.8c-0.6-2.1-1.8-4.1-3.6-5.4c-1.8-1.3-3.9-1.9-6.1-1.8c-8.4,0-12.6,8.4-12.6,25.1v60.6
	c0,1.1,0.1,2.6,0.2,4.5c0,1.4,0.2,2.7,0.5,4.1c0.2,0.8,0.6,1.8,1,3.1c0.3,1,0.8,1.9,1.5,2.7c0.7,0.6,1.5,1.2,2.3,1.6
	c1,0.6,2.1,1,3.2,1.2C2669,1661.8,2670.3,1661.9,2671.7,1661.9L2671.7,1661.9L2671.7,1661.9z"/>
<path d="M2755.7,1541.7c5.5-0.1,10.9,1.1,15.8,3.5c4.4,2.1,8.3,5.3,11.3,9.2c2.8,3.8,5,8,6.4,12.5c1.4,4.6,2.2,9.4,2.2,14.3
	c0,16.1-2.9,28.1-8.8,35.8c-5.9,7.7-15.6,11.6-29.2,11.6h-7.3v53.5h-22.7v-140.3H2755.7z M2746.1,1608.1h7.3c1.9,0,3.8-0.2,5.7-0.7
	c1.4-0.4,2.8-1,4.1-1.7c1.2-0.8,2.1-1.9,2.8-3.1c0.6-1.2,1.2-2.4,1.6-3.6c0.4-1.5,0.7-3.1,0.9-4.7c0.2-1.7,0.3-3.3,0.4-5v-7.4
	c0-3.1-0.1-5.4-0.2-7c-0.2-1.8-0.5-3.7-1-5.4c-0.3-1.7-1.1-3.3-2.3-4.6c-1.3-1.1-2.8-2-4.5-2.6c-2.4-0.8-4.9-1.2-7.4-1.1h-7.3
	L2746.1,1608.1L2746.1,1608.1z"/>
<path d="M2869.8,1563.8h-38.4v37.4h28.4v22.1h-28.4v36h40l-0.5,22.5h-62.3v-140.3h61.2L2869.8,1563.8L2869.8,1563.8z"/>
<path d="M2949.9,1541.7h21.6V1682h-22.8l-36.3-78.7l-0.2,78.7h-23.7v-140.3h23.2l38.2,86.3L2949.9,1541.7L2949.9,1541.7
	L2949.9,1541.7z"/>
<path d="M2988.8,1681.8v-140.3h22.5v140.3H2988.8z"/>
<path d="M3090,1541.7h21.6V1682h-22.8l-36.3-78.7l-0.2,78.7h-23.7v-140.3h23.2l38.2,86.3L3090,1541.7L3090,1541.7L3090,1541.7z"/>
<path d="M3174.7,1630.2v-18.5h22v70.1h-10.9l-3.3-14.2c0,3.9-2.1,7.3-6.4,10c-3.7,2.6-8.1,4-12.6,4.2h-2.3c-3.7,0-7.4-0.7-10.8-2.2
	c-3.8-1.6-7.3-3.9-10.3-6.8c-3.3-3.1-6-7.4-8.1-13.2c-2.2-6.4-3.2-13.2-3.1-20v-58c0-13.8,3.1-24,9.3-30.4
	c6.2-6.5,14.1-9.7,23.8-9.7h6.2c9.2,0,16.5,3.4,21.7,10.3c5.2,6.9,7.9,17,7.9,30.4l-22.1,1.7c0-4-0.1-7.4-0.4-10
	c-0.2-2.6-0.7-5.2-1.4-7.7c-0.5-2.1-1.7-4.1-3.4-5.4c-1.7-1.2-3.7-1.8-5.8-1.7c-2.5-0.1-4.9,0.5-7,1.8c-1.9,1.4-3.3,3.4-4,5.6
	c-0.9,2.5-1.4,5.1-1.6,7.7c-0.2,2.6-0.4,5.9-0.4,9.8v55c0,8.2,0.9,14.1,2.6,17.7c1.7,3.6,5.1,5.4,10,5.4c1.5,0,3-0.3,4.4-0.9
	c1.3-0.6,2.3-1.7,2.9-2.9c0.7-1.3,1.3-2.6,1.8-4c0.6-1.9,0.9-3.8,1-5.8c0.2-2.6,0.3-4.7,0.3-6.3L3174.7,1630.2L3174.7,1630.2z"/>
<path d="M3294.8,1582.1l-21.8-1.4v-5.4c0-3.9,0.7-7.8,2.1-11.4c1.4-3.9,3.5-7.5,6.1-10.7c2.9-3.5,6.5-6.3,10.6-8.1
	c4.7-2.1,9.8-3.2,15-3.1h2.3c9.6,0,17.2,2.5,22.8,7.4s8.4,12.2,8.4,21.8v4c0,2.7-0.1,5.1-0.3,7.3c-0.2,2.2-0.3,4.2-0.4,6
	c-0.1,1.8-0.4,3.7-0.9,5.4c-0.5,1.8-0.8,3.3-1,4.4c-0.4,1.5-1,2.9-1.7,4.3c-0.9,1.8-1.4,3-1.7,3.7c-0.7,1.3-1.4,2.6-2.3,3.9
	l-2.4,3.8c-0.4,0.7-1.4,2.1-3,4.3s-2.6,3.7-3.1,4.4c-3.2,4.3-6.6,8.5-10.2,12.5c-4.4,4.9-8.4,10.1-12,15.6
	c-2.9,4.6-4.4,8.7-4.4,12.5h43.4v18.7H3273v-19.6c0-2.5,0.3-4.9,0.9-7.3c0.5-2.3,1.2-4.5,2-6.8c1-2.4,2.1-4.7,3.6-6.9
	c1.6-2.6,3-4.7,4.1-6.3c1.1-1.6,2.8-3.8,5.1-6.6c2.3-2.8,4-4.8,5.1-6c1.1-1.2,3-3.3,5.6-6.1c2.7-2.8,4.4-4.7,5.2-5.6
	c4.8-5.3,8.7-11.2,11.8-17.7c2.9-5.8,4.5-12.2,4.6-18.7c0-5.6-1-9.7-2.9-12.1c-2-2.4-5.1-3.6-9.5-3.6
	C3299.3,1558.9,3294.8,1566.7,3294.8,1582.1z"/>
<path d="M3398.3,1681.4h-9.4c-21,0-31.5-13.9-31.5-41.7v-58.3c0-13.8,3.1-23.9,9.2-30.3c6.1-6.3,14.1-9.5,23.9-9.5h6.2
	c9.3,0,16.8,3.3,22.3,9.9c5.5,6.6,8.3,16.6,8.3,29.9v58.3c0.1,6.1-0.5,12.3-1.8,18.3c-0.9,4.2-2.4,8.3-4.5,12.1
	c-1.7,2.8-4,5.3-6.8,7.1c-2.4,1.6-5,2.8-7.8,3.5C3403.7,1681.2,3401,1681.5,3398.3,1681.4z M3392.9,1661.9c1.7,0,3.3-0.1,4.9-0.5
	c1.3-0.3,2.5-1.1,3.3-2.2c0.8-0.9,1.4-1.9,2-3c0.6-1.5,0.9-3.1,1-4.7c0.2-2.2,0.3-4,0.4-5.4c0.1-1.4,0.1-3.8,0.1-7v-55.4
	c0-3.3-0.1-6.7-0.4-10c-0.3-2.6-0.8-5.3-1.6-7.8c-0.6-2.1-1.8-4.1-3.6-5.4c-1.8-1.3-4-1.9-6.1-1.8c-8.4,0-12.6,8.4-12.6,25.1v60.6
	c0,1.1,0.1,2.6,0.2,4.5c0,1.4,0.2,2.7,0.5,4.1c0.2,0.8,0.6,1.8,1,3.1c0.3,1,0.8,1.9,1.5,2.7c0.7,0.6,1.5,1.2,2.3,1.6
	c1,0.6,2.1,1,3.2,1.2C3390.2,1661.8,3391.5,1661.9,3392.9,1661.9L3392.9,1661.9L3392.9,1661.9z"/>
<path d="M3458.8,1682.1v-105h-14.2v-16.3c4.3,0.1,8.6-0.5,12.7-1.6c3.7-1.1,7.1-3.2,9.7-6.1c2.8-3.1,4.2-7.1,4.1-11.2h10.6v140.1
	L3458.8,1682.1L3458.8,1682.1z"/>
<path d="M3498.9,1541.5h76.1v19l-43.9,121.6h-22.7l42-120.4h-51.6L3498.9,1541.5L3498.9,1541.5z"/>
<polygon class="st2" points="3486.9,1426.2 3303.5,1479.1 3434,1622.3 "/>
<polygon class="st2" points="1563,461.6 1516.1,623.3 1684.3,593.5 "/>
<polygon class="st2" points="2917,225.6 2870.1,387.4 3038.3,357.5 "/>
<polygon class="st2" points="64,1721.8 153.4,1864.4 243.2,1719.1 "/>
<polygon class="st2" points="2231,2098.6 2184.1,2260.4 2352.3,2230.5 "/>
<pattern  id="SVGID_4_" xlink:href="#d" patternTransform="matrix(1 0 0 1 -146.13 -117.99)">
</pattern>
<rect x="2904.9" y="1914.7" class="st6" width="524.6" height="291.2"/>
<pattern  id="SVGID_5_" xlink:href="#e" patternTransform="matrix(1 0 0 1 -131.13 -93.66)">
</pattern>
<rect x="263.2" y="111.6" class="st7" width="805.3" height="306.8"/>
<path class="st2" d="M106.9,339v22H79.3v132.1H54.4v-132H27.2v-22L106.9,339L106.9,339L106.9,339z"/>
<path class="st2" d="M172.2,339h25.3v154.1h-25.3v-67.3h-28.1v67.3H119V339h25.1v65.7h28.1L172.2,339L172.2,339L172.2,339z"/>
<path class="st2" d="M283.7,363.5h-42.2v41h31.2v24.3h-31.2v39.5h43.9l-0.6,24.7h-68.4V339h67.3L283.7,363.5L283.7,363.5
	L283.7,363.5z"/>
<path class="st2" d="M393,339.2c6-0.1,12,1.2,17.4,3.8c4.9,2.3,9.1,5.8,12.3,10.1c3.1,4.2,5.5,8.8,7,13.8c1.6,5.1,2.4,10.4,2.4,15.7
	c0,17.7-3.2,30.8-9.7,39.3c-6.5,8.5-17.2,12.7-32.1,12.7h-8v58.7h-24.8V339.2H393z M382.3,412.2h8c2.1,0,4.2-0.2,6.3-0.8
	c1.6-0.4,3.1-1.1,4.5-1.9c1.3-0.9,2.3-2,3-3.4c0.7-1.3,1.3-2.6,1.8-4c0.5-1.7,0.8-3.4,1-5.1c0.2-1.8,0.3-3.7,0.4-5.5v-8.2
	c0-3.4-0.1-6-0.2-7.7c-0.2-2-0.5-4-1-6c-0.4-1.9-1.3-3.6-2.6-5c-1.4-1.3-3.1-2.2-4.9-2.9c-2.6-0.9-5.4-1.3-8.2-1.2h-8L382.3,412.2
	L382.3,412.2z"/>
<path class="st2" d="M507.9,363.5h-42.1v41h31.1v24.3h-31.1v39.5h43.9l-0.6,24.7h-68.4v-154h67.2V363.5L507.9,363.5L507.9,363.5z"/>
<path class="st2" d="M577.9,385.2c0-4.7-0.1-8.4-0.3-11.2c-0.2-2.8-0.7-5.6-1.4-8.4c-0.5-2.3-1.7-4.5-3.5-6.1
	c-1.8-1.3-4.1-2-6.4-1.9c-1.8,0-3.6,0.3-5.3,0.9c-1.5,0.6-2.8,1.6-3.6,3c-0.8,1.3-1.5,2.7-2.2,4.1c-0.7,1.9-1.1,3.8-1.1,5.8
	c-0.2,2.6-0.3,4.7-0.4,6.3s-0.1,4-0.1,7.3v60.4c0,9.2,0.8,15.8,2.3,19.7c1.5,3.9,4.9,5.8,10.1,5.8c1.7,0,3.4-0.2,5-0.7
	c1.4-0.4,2.6-1.3,3.4-2.6c0.7-1.1,1.4-2.3,2-3.5c0.6-1.7,1-3.5,1.1-5.3c0.3-2.5,0.4-4.5,0.4-6.1V444l24.9,1.7
	c0.4,6.8,0.1,13.5-1,20.2c-1.1,5.8-2.7,10.4-4.7,13.7c-1.9,3.2-4.5,6-7.5,8.2c-2.6,1.9-5.5,3.3-8.6,4.2c-3,0.7-6.1,1-9.1,1h-9.9
	c-3.1,0-6.2-0.3-9.2-1c-3.2-0.8-6.2-2.2-8.9-4.1c-3.2-2.1-5.8-4.9-7.9-8.1c-2.5-4.2-4.3-8.8-5.3-13.6c-1.5-6.6-2.2-13.3-2.1-20
	v-63.8c0-15.3,3.1-26.4,9.2-33.3s14.5-10.3,25-10.3h6.8c10.1,0,18.2,3.7,24.2,11.1c6,7.4,9,18.5,9,33.1L577.9,385.2z"/>
<path class="st2" d="M700.4,339.2l-29.8,77l31.2,77.1h-26.4l-26.2-60H647v60h-25.3V339.2H647v66.7l27.2-66.7L700.4,339.2
	L700.4,339.2z"/>
<path class="st2" d="M772,339h25.3v154.1H772v-67.3h-28.2v67.3h-25V339h25v65.7H772L772,339L772,339L772,339z"/>
<path class="st2" d="M843.1,339h31.7l24.5,154.1h-23.8l-5.7-32.7h-24.3l-5.7,32.7h-23.6L843.1,339z M847.5,445H868l-10.5-64.6
	L847.5,445z"/>
<path class="st2" d="M914.9,339.2H947l24.3,95.2l23.6-95.2h32.5v153.3h-26.2l1.5-87.4L980.9,477h-18.8l-23.4-71.8l1.5,87.4h-25.3
	V339.2z"/>
<circle class="st2" cx="2511.6" cy="223.4" r="34.8"/>
<circle class="st2" cx="2391.6" cy="1466.4" r="34.8"/>
<circle class="st2" cx="96.2" cy="2018.2" r="34.8"/>
<path class="st8" d="M1008.4,788.8h156.9l121.2,762H1169l-28.2-161.6h-120.3l-28.2,161.6H875.9L1008.4,788.8z M1030,1313.1h101.5
	l-51.7-319.4L1030,1313.1z"/>
<path class="st9" d="M263.2,732.4c11.7-53.7-19.8-104.7-38.3-65.7s-52-8-52-8c-61.8-40-26,96.3-73,73.7
	c-71.7-34.5-80.2,12.7-40,44.6c41,32.6,57.5,41.4-2,56.8c-84,21.8,37.9,67,41,79.3c8,31.5-80,23.5-70,60.2c9.2,33.8,111,4.6,81,33.1
	c-54.6,51.8-99,32.3-46,72.8c42.4,32.4,36,24.3-16,54.7c-46.7,27.3-62.3,35.1,39,58.8c51,11.9-29.6,68.2-19,88.2
	c21,39.8,80.4-11.3,97,32.3c27,70.9,87,59.6,67-6.4c-21.1-69.6,72.6,11.9,85-15.2c17-37-67-76.6-35-107.8c26.6-25.9,51,6,51,6"/>
</svg>
