<svg id="Layer_1" data-name="Layer 1" xmlns="http://www.w3.org/2000/svg" xmlns:xlink="http://www.w3.org/1999/xlink" viewBox="0 0 3575.05 2260.35">
  <defs>
    <style>
      .cls-1, .cls-10, .cls-9 {
        fill: none;
      }

      .cls-2 {
        fill: #333;
      }

      .cls-3 {
        fill: #fff;
      }

      .cls-4 {
        fill: url(#a);
      }

      .cls-5 {
        fill: url(#b);
      }

      .cls-6 {
        fill: url(#c);
      }

      .cls-7 {
        fill: url(#d);
      }

      .cls-8 {
        fill: url(#e);
      }

      .cls-10, .cls-9 {
        stroke: #000;
        stroke-miterlimit: 10;
      }

      .cls-9 {
        stroke-width: 15px;
      }

      .cls-10 {
        stroke-width: 23px;
      }
    </style>
    <pattern id="a" data-name="a" width="133" height="112" patternTransform="translate(106.87 -62.66)" patternUnits="userSpaceOnUse" viewBox="0 0 133 112">
      <rect class="cls-1" width="133" height="112"/>
      <rect class="cls-1" width="133" height="112"/>
      <rect class="cls-1" width="133" height="112"/>
      <polygon points="99.58 88.8 66.13 110.25 33.06 88.8 0 110.25 0 135.2 33.08 114.23 66.13 135.2 99.56 114.23 133 135.2 133 110.25 99.58 88.8"/>
      <polygon points="99.58 32.8 66.13 54.25 33.06 32.8 0 54.25 0 79.2 33.08 58.23 66.13 79.2 99.56 58.23 133 79.2 133 54.25 99.58 32.8"/>
      <polygon points="99.58 -23.2 66.13 -1.75 33.06 -23.2 0 -1.75 0 23.2 33.08 2.23 66.13 23.2 99.56 2.23 133 23.2 133 -1.75 99.58 -23.2"/>
    </pattern>
    <pattern id="b" data-name="b" width="102" height="108" patternTransform="translate(195.87 -174.66)" patternUnits="userSpaceOnUse" viewBox="0 0 102 108">
      <rect class="cls-1" width="102" height="108"/>
      <rect class="cls-1" width="102" height="108"/>
      <rect class="cls-1" width="102" height="108"/>
      <polyline class="cls-2" points="196.89 56.56 196.89 77.55 64.89 147.44 64.89 126.56 196.89 56.62"/>
      <polyline class="cls-2" points="94.89 56.56 94.89 77.55 -37.11 147.44 -37.11 126.56 94.89 56.62"/>
      <polyline class="cls-2" points="196.89 2.56 196.89 23.55 64.89 93.44 64.89 72.56 196.89 2.62"/>
      <polyline class="cls-2" points="94.89 2.56 94.89 23.55 -37.11 93.44 -37.11 72.56 94.89 2.62"/>
      <polyline class="cls-2" points="196.89 -51.44 196.89 -30.45 64.89 39.44 64.89 18.57 196.89 -51.38"/>
      <polyline class="cls-2" points="94.89 -51.44 94.89 -30.45 -37.11 39.44 -37.11 18.57 94.89 -51.38"/>
    </pattern>
    <pattern id="c" data-name="c" width="81" height="56.67" patternTransform="translate(228.87 -117.99)" patternUnits="userSpaceOnUse" viewBox="0 0 81 56.67">
      <rect class="cls-1" width="81" height="56.67"/>
      <rect class="cls-1" width="81" height="56.67"/>
      <rect class="cls-1" width="81" height="56.67"/>
      <path class="cls-2" d="M81,26.2V46.67c-22.67,0-24.87-15.53-40.5-15.53C25.13,31.14,13.83,46.67,0,46.67V26.2c12.5,0,20.5-14.89,40.5-14.89C61.75,11.31,66.83,26.17,81,26.2Z"/>
    </pattern>
    <pattern id="d" data-name="d" width="81" height="56.67" patternTransform="translate(-146.13 -117.99)" patternUnits="userSpaceOnUse" viewBox="0 0 81 56.67">
      <rect class="cls-1" width="81" height="56.67"/>
      <rect class="cls-1" width="81" height="56.67"/>
      <rect class="cls-1" width="81" height="56.67"/>
      <path class="cls-2" d="M81,26.2V46.67c-22.67,0-24.87-15.53-40.5-15.53C25.13,31.14,13.83,46.67,0,46.67V26.2c12.5,0,20.5-14.89,40.5-14.89C61.75,11.31,66.83,26.17,81,26.2Z"/>
    </pattern>
    <pattern id="e" data-name="e" width="56" height="81" patternTransform="translate(-131.13 -93.66)" patternUnits="userSpaceOnUse" viewBox="0 0 56 81">
      <rect class="cls-1" width="56" height="81"/>
      <rect class="cls-1" width="56" height="81"/>
      <rect class="cls-1" width="56" height="81"/>
      <polygon class="cls-2" points="55.67 0 86.13 0 112.33 40.5 86.13 81 55.67 81 81.27 40.5 55.67 0"/>
      <polygon class="cls-2" points="-0.33 0 30.13 0 56.33 40.5 30.13 81 -0.33 81 25.27 40.5 -0.33 0"/>
      <polygon class="cls-2" points="-56.33 0 -25.87 0 0.33 40.5 -25.87 81 -56.33 81 -30.73 40.5 -56.33 0"/>
    </pattern>
  </defs>
  <title>logo_big</title>
  <path id="c-back" class="cls-3" d="M246.87,853.92q0-34.75-1.41-55.43a211.34,211.34,0,0,0-7-41.34q-5.64-20.65-17.38-30.07t-31.52-9.42q-15,0-26.31,4.22a34.84,34.84,0,0,0-17.85,15,186.92,186.92,0,0,0-10.81,20.2q-4.22,9.4-5.63,28.65t-1.88,31c-0.33,7.85-.48,19.9-4.21,36v298.93c3.74,45.87,7.5,78.28,15,97.38s24.11,28.65,49.8,28.66a85.22,85.22,0,0,0,24.89-3.29,30,30,0,0,0,16.93-12.75,147.92,147.92,0,0,0,9.87-17.38q3.74-8,5.63-26.31t1.88-30.06v-42.75l123.08,8.5q2.82,57.33-5.17,100.06t-23,67.65q-15,24.91-37.11,40.4t-42.8,20.65a186.34,186.34,0,0,1-45.1,5.17H167.95a192.08,192.08,0,0,1-45.57-5.17q-21.13-5.18-44.16-20.2t-39-39.93q-16-24.89-26.31-67.18T2.59,1156.46V840.77q0-113.68,45.56-164.42t123.56-50.69h33.82q75.16,0,119.8,55t44.63,164Z"/>
  <path id="o-back" class="cls-3" d="M623.24,1483H572.51q-171,0-171-226.43V939.95q0-112.74,49.8-164.42T581,723.86h33.82q76.11,0,121.2,53.55t45.1,162.54v316.63q0,57.32-9.86,99.13t-24.43,65.77A120.17,120.17,0,0,1,710.16,1460q-22.09,14.58-42.28,18.79A218.06,218.06,0,0,1,623.24,1483Zm-29.13-106.17q16,0,26.78-2.82a32.73,32.73,0,0,0,17.85-11.74,97.16,97.16,0,0,0,10.81-16.45q3.75-7.5,5.17-25.37t1.88-29.6q0.46-11.74.47-38.05V952.17a540.45,540.45,0,0,0-2.35-54.51,220.46,220.46,0,0,0-8.46-42.28q-6.12-19.73-19.26-29.59t-32.88-9.87q-68.6,0-68.59,136.23v329.32q0,8.94.94,24.43t2.82,22.08q1.87,6.59,5.17,16.91c2.19,6.9,4.84,11.74,8,14.57a87.3,87.3,0,0,0,12.21,8.92A49.92,49.92,0,0,0,572,1375a117.74,117.74,0,0,0,22.07,1.88h0Z"/>
  <path class="cls-3" d="M925.37,833.83h156.9l121.2,762H1086l-28.17-161.63H937.59L909.4,1595.81H792.87ZM947,1358.1h101.47l-51.67-319.44Z"/>
  <path class="cls-3" d="M1429.74,1389.47v218.91h208.58v111.81h-332.6v-762h124v431.25Z"/>
  <path class="cls-3" d="M2075.87,1279.31v218.91h208.58V1610H1951.87V848h124v431.28h0Z"/>
  <path class="cls-3" d="M2336.6,1510.59V748.66h122.14v762H2336.6v-0.07Z"/>
  <path class="cls-3" d="M2923.62,635.66h117.45v762h-124l-197.3-427.49-0.9,427.49H2590.08v-762H2716l207.64,468.83V635.66h0Z"/>
  <path class="cls-3" d="M3466,602.81H3257.38V805.76h154.09V926H3257.38v195.43h217l-2.82,122.14h-338.2V481.66H3466V602.81Z"/>
  <path class="cls-4" d="M2059.15,1298.94v201.82h192.3v103.08H1944.81V901.36h114.34V1299h0Z"/>
  <path class="cls-5" d="M1453.92,1366.94v201.82h192.3v103.08H1339.59V969.36h114.34V1367h0Z"/>
  <path class="cls-6" d="M3455.76,621.74h-192.3v187.1h142.06V919.72H3263.46v180.17h200.09L3461,1212.5H3149.12V510h306.63V621.74h0Z"/>
  <g>
    <rect class="cls-2" x="754.12" y="1051.97" width="17.08" height="81.11" transform="translate(-271.6 252.54) rotate(-16)"/>
    <rect class="cls-2" x="409.04" y="873.09" width="81.11" height="17.08" transform="translate(-444.24 456.82) rotate(-37.56)"/>
    <rect class="cls-2" x="409.05" y="1286.98" width="81.11" height="17.08" transform="translate(-909.12 1110.1) rotate(-63.09)"/>
    <rect class="cls-2" x="467.01" y="904.09" width="17.08" height="81.11" transform="translate(-32.68 17.17) rotate(-2)"/>
    <rect class="cls-2" x="467.06" y="842.08" width="81.11" height="17.08" transform="translate(-379.97 1290.4) rotate(-85.53)"/>
    <rect class="cls-2" x="407.85" y="1159.02" width="81.13" height="17.08" transform="translate(-727.88 1592.54) rotate(-88.85)"/>
    <rect class="cls-2" x="390.05" y="948.15" width="81.11" height="17.08" transform="translate(-618.25 932.57) rotate(-64.45)"/>
    <rect class="cls-2" x="477.1" y="1089.02" width="17.08" height="81.11" transform="translate(-160.35 83.4) rotate(-8.43)"/>
    <rect class="cls-2" x="390.04" y="1034.13" width="81.11" height="17.08" transform="translate(-639.93 686.96) rotate(-49.18)"/>
    <rect class="cls-2" x="423.05" y="801.07" width="81.11" height="17.08" transform="translate(-464.66 903.03) rotate(-65.95)"/>
    <rect class="cls-2" x="404" y="1210.09" width="17.08" height="81.11" transform="translate(-43.4 15.16) rotate(-2)"/>
    <rect class="cls-2" x="382.07" y="1121.12" width="81.11" height="17.08" transform="translate(-770.75 1304.64) rotate(-77.83)"/>
    <rect class="cls-2" x="659.01" y="1112" width="81.11" height="17.08" transform="translate(-510.41 1650.6) rotate(-81.68)"/>
    <rect class="cls-2" x="693.05" y="1008.11" width="81.11" height="17.08" transform="translate(-467.68 657.93) rotate(-37.56)"/>
    <rect class="cls-2" x="538.06" y="1448.98" width="81.11" height="17.08" transform="translate(-935.36 1048.8) rotate(-53.24)"/>
    <rect class="cls-2" x="674.02" y="921.11" width="17.08" height="81.11" transform="translate(-33.15 24.41) rotate(-2)"/>
    <rect class="cls-2" x="671.12" y="746.98" width="17.08" height="81.11" transform="translate(-38.05 34.52) rotate(-2.83)"/>
    <rect class="cls-2" x="691.01" y="921.59" width="81.13" height="17.08" transform="matrix(0.02, -1, 1, 0.02, -213, 1642.96)"/>
    <rect class="cls-2" x="446.05" y="1016.97" width="81.11" height="17.08" transform="translate(-648.5 1022.42) rotate(-64.46)"/>
    <rect class="cls-2" x="694.68" y="1368.97" width="81.25" height="17.11" transform="translate(-782.15 1745.76) rotate(-75.55)"/>
    <rect class="cls-2" x="495.06" y="760.13" width="81.11" height="17.08" transform="translate(-396.21 671.53) rotate(-49.18)"/>
    <rect class="cls-2" x="659.03" y="854.03" width="81.11" height="17.08" transform="translate(-302.89 1340.59) rotate(-76.45)"/>
    <rect class="cls-2" x="684" y="1280.1" width="17.08" height="81.11" transform="translate(-45.67 24.97) rotate(-2)"/>
    <rect class="cls-2" x="684.07" y="1175.13" width="81.11" height="17.08" transform="translate(-585.2 1642.48) rotate(-77.83)"/>
    <rect class="cls-2" x="427.05" y="1365.09" width="17.08" height="81.11" transform="translate(-643.94 405.55) rotate(-29.97)"/>
    <rect class="cls-2" x="456.04" y="1247.03" width="81.11" height="17.08" transform="translate(-772.43 1716.69) rotate(-88.39)"/>
    <rect class="cls-2" x="624.04" y="1471.08" width="81.11" height="17.08" transform="translate(-694.18 593.78) rotate(-32.71)"/>
    <rect class="cls-2" x="525.05" y="1370.96" width="17.08" height="81.11" transform="translate(-944.61 1714.89) rotate(-80.89)"/>
    <rect class="cls-2" x="618.06" y="1410.95" width="81.11" height="17.08" transform="translate(-828.96 933.86) rotate(-47.03)"/>
    <rect class="cls-2" x="593.08" y="750.08" width="17.08" height="81.11" transform="translate(-309.21 1187.41) rotate(-76.27)"/>
    <rect class="cls-2" x="739.09" y="781.03" width="17.08" height="81.11" transform="translate(-303.45 462.16) rotate(-28.82)"/>
    <rect class="cls-2" x="739.06" y="1244.09" width="17.08" height="81.11" transform="translate(-541.78 545.23) rotate(-29.97)"/>
    <rect class="cls-2" x="435.04" y="1344.98" width="81.11" height="17.08" transform="translate(-945.98 1546.74) rotate(-78.38)"/>
    <rect class="cls-2" x="730.56" y="1197.24" width="81.15" height="17.09" transform="translate(-457.25 1940.38) rotate(-88.28)"/>
    <rect class="cls-2" x="613.07" y="706.05" width="17.08" height="81.11" transform="translate(-346.96 821.99) rotate(-54.67)"/>
    <rect class="cls-2" x="466.11" y="1440.03" width="81.11" height="17.08" transform="translate(-197.38 84.98) rotate(-8.03)"/>
  </g>
  <path d="M2971.87,1322.2V724.8c0-13.52-12-26.47-26-25.84s-26,11.36-26,25.84V1268c-9-19.8-17.67-39.59-26.63-59.39-12.36-27.33-24.61-54.66-37-82q-20.29-44.84-40.51-89.68-20.6-45.54-41.17-91.08l-38.45-85-32.52-71.9-23.31-51.53c-3.69-8.17-7.12-16.52-11.11-24.55-0.17-.34-0.32-0.7-0.48-1-2.23-4.92-7.65-8.59-12.36-10.57-5.14-2.17-11.72-3.07-17.17-1.3-10.86,3.52-19.32,13.19-19.32,24.92v601.69c0,8.13.23,16.28,0.35,24.41,0,0.35.17,0.7,0.17,1,0,13.52,11.78,26.47,25.74,25.84s25.74-11.36,25.74-25.84V844.29c3,5.29,5,10.57,7.36,15.86,11.76,26,23.61,52,35.36,78q19.56,43.23,39.16,86.46,19.88,43.94,39.78,87.88l37.89,83.73,32.82,72.52,25.16,55.61,14.46,32c0.77,1.69,1.44,3.47,2.32,5.12,7.59,14.31,25.2,20.94,40.52,16.56s24.9-18.38,25.26-33.91C2972.12,1336.76,2971.87,1329.47,2971.87,1322.2Zm-18,21.82c-0.28,7.56-4.61,14.2-12,16.47a17.13,17.13,0,0,1-20.07-8.24c-0.87-1.64-1.54-3.42-2.31-5.12l-14.46-32-25.16-55.57L2847.06,1187l-37.88-83.73-39.76-87.88L2730.31,929,2695,851c-9.62-21.27-19.39-42.53-29-63.8-4-8.86-8.17-17.72-12.17-26.58v591c0,11-15.22,11-15.22,0a2.2,2.2,0,0,1-.39-0.88c-0.21-8.12-.39-16.11-0.39-24.24V724.8c0-7.21,11.55-11.19,14.84-3.91,0.56,1.24,1.32,2.48,1.88,3.72,4.4,9.73,8.9,19.46,13.3,29.19l24,53q15.9,35.15,31.83,70.3l37.12,82,39.31,86.88,39.05,86.32,35.67,78.84,29.81,65.88,20.9,46.19c3.11,6.87,5.9,14,9.38,20.73,0.08,0.15.13,0.32,0.21,0.47a3.54,3.54,0,0,1,.48.86c0.57,0.77.25,0.37,1.32,0.45a4.93,4.93,0,0,1,1-.32,2,2,0,0,0,.44-1.29c0-.14-0.29-0.3-0.29-0.44,0-2.55-.29-5.11-0.29-7.66V724.66c0-10,16-10,16,0v597.59C2953.87,1329.46,2954.18,1336.77,2953.87,1344Z"/>
  <polygon class="cls-2" points="2476.78 1409.53 2364.87 1353.02 2364.87 1469.45 2476.78 1409.53"/>
  <polygon class="cls-2" points="2364.87 1238.37 2364.87 1353.02 2476.8 1293.1 2366.61 1237.45 2476.8 1178.45 2364.87 1121.94 2364.87 1236.59 2364.87 1238.37"/>
  <polygon class="cls-2" points="2476.78 1062.02 2364.87 1005.51 2364.87 1121.94 2476.78 1062.02"/>
  <polygon class="cls-2" points="2364.87 889.07 2364.87 1005.51 2476.78 945.59 2364.87 889.07"/>
  <polygon class="cls-2" points="2364.87 772.64 2364.87 889.07 2476.78 829.16 2364.87 772.64"/>
  <path d="M2677,1681.44h-9.34q-31.49,0-31.49-41.69v-58.3q0-20.76,9.17-30.28t23.87-9.51h6.23q14,0,22.32,9.86t8.3,29.93v58.3a80.31,80.31,0,0,1-1.82,18.25,42.43,42.43,0,0,1-4.5,12.11,22.13,22.13,0,0,1-6.75,7.09,22.82,22.82,0,0,1-7.79,3.46A40.25,40.25,0,0,1,2677,1681.44Zm-5.36-19.55a19.85,19.85,0,0,0,4.93-.52,6,6,0,0,0,3.29-2.16,17.93,17.93,0,0,0,2-3,13.8,13.8,0,0,0,1-4.67q0.26-3.28.35-5.45t0.09-7v-55.43a99.6,99.6,0,0,0-.43-10,40.59,40.59,0,0,0-1.56-7.79,10.41,10.41,0,0,0-3.55-5.45,9.81,9.81,0,0,0-6.05-1.82q-12.63,0-12.63,25.08v60.64q0,1.65.17,4.5a21,21,0,0,0,.52,4.07q0.34,1.21,1,3.11a6,6,0,0,0,1.47,2.68,16,16,0,0,0,2.25,1.64,9.16,9.16,0,0,0,3.2,1.21,21.65,21.65,0,0,0,3.94.36h0Z"/>
  <path d="M2755.74,1541.66a35.29,35.29,0,0,1,15.83,3.46,30.6,30.6,0,0,1,11.25,9.17,42.37,42.37,0,0,1,6.4,12.54,47.07,47.07,0,0,1,2.16,14.27q0,24.22-8.82,35.81t-29.24,11.59H2746V1682h-22.66v-140.3h32.35Zm-9.69,66.43h7.27a20.9,20.9,0,0,0,5.71-.69,15.66,15.66,0,0,0,4.07-1.73,8.2,8.2,0,0,0,2.77-3.11,23.66,23.66,0,0,0,1.64-3.63,24.46,24.46,0,0,0,.86-4.67,47.62,47.62,0,0,0,.35-5v-7.44q0-4.67-.17-7a33.15,33.15,0,0,0-1-5.45,9.28,9.28,0,0,0-2.34-4.58,13.67,13.67,0,0,0-4.5-2.59,21.07,21.07,0,0,0-7.44-1.12H2746v47.06Z"/>
  <path d="M2869.75,1563.8h-38.41v37.37h28.37v22.14h-28.37v36h40l-0.52,22.49h-62.28V1541.5h61.24v22.32Z"/>
  <path d="M2949.87,1541.66h21.63V1682h-22.84l-36.33-78.71-0.17,78.71h-23.7v-140.3h23.18l38.23,86.33v-86.33h0Z"/>
  <path d="M2988.77,1681.79v-140.3h22.49v140.3h-22.49Z"/>
  <path d="M3090,1541.66h21.63V1682h-22.84l-36.33-78.71-0.17,78.71h-23.7v-140.3h23.18L3090,1628v-86.33h0Z"/>
  <path d="M3174.74,1630.23v-18.51h22v70.06h-10.87l-3.29-14.19q0,5.88-6.4,10a23.14,23.14,0,0,1-12.63,4.15h-2.25a28.28,28.28,0,0,1-10.81-2.16,35.07,35.07,0,0,1-10.29-6.75q-5-4.58-8.13-13.15a58.42,58.42,0,0,1-3.11-20v-58q0-20.76,9.25-30.45t23.79-9.69h6.23q13.84,0,21.71,10.29t7.87,30.36l-22.14,1.73q0-6.05-.35-10a42.33,42.33,0,0,0-1.38-7.7,9.77,9.77,0,0,0-3.37-5.45,9.49,9.49,0,0,0-5.8-1.73,12.27,12.27,0,0,0-7,1.82,10.66,10.66,0,0,0-4,5.62,32.72,32.72,0,0,0-1.64,7.7q-0.35,3.89-.35,9.77v55q0,12.29,2.59,17.73t10,5.45a10.18,10.18,0,0,0,4.41-.87,6.59,6.59,0,0,0,2.94-2.94,30.09,30.09,0,0,0,1.82-4,22.6,22.6,0,0,0,1-5.8q0.26-3.89.26-6.31v-11.94Z"/>
  <path d="M3294.8,1582.14l-21.8-1.38v-5.36a33.22,33.22,0,0,1,2.08-11.42,38.22,38.22,0,0,1,6.06-10.73,28.9,28.9,0,0,1,10.64-8.13,34.9,34.9,0,0,1,15-3.11H3309q14.36,0,22.75,7.44t8.39,21.8v4q0,4-.26,7.27t-0.43,6a30.73,30.73,0,0,1-.87,5.45q-0.69,2.77-1,4.41a20.23,20.23,0,0,1-1.74,4.28q-1.3,2.69-1.73,3.72a32.83,32.83,0,0,1-2.25,3.89l-2.42,3.81q-0.61,1-3,4.33t-3.11,4.41a159.79,159.79,0,0,1-10.21,12.54,140.21,140.21,0,0,0-12,15.57q-4.41,6.83-4.41,12.54h43.42v18.68H3273V1662.6a32.31,32.31,0,0,1,.86-7.35,55.23,55.23,0,0,1,2-6.75,39.45,39.45,0,0,1,3.55-6.92q2.42-3.89,4.07-6.31t5.1-6.57q3.46-4.15,5.1-6t5.62-6.06q4-4.24,5.19-5.62a71.46,71.46,0,0,0,11.76-17.65,43.75,43.75,0,0,0,4.58-18.71q0-8.47-2.94-12.11t-9.51-3.63Q3294.79,1559,3294.8,1582.14Z"/>
  <path d="M3398.25,1681.44h-9.38q-31.49,0-31.49-41.69v-58.3q0-20.76,9.17-30.28t23.87-9.51h6.23q14,0,22.32,9.86t8.3,29.93v58.3a80.31,80.31,0,0,1-1.82,18.25,42.43,42.43,0,0,1-4.5,12.11,22.12,22.12,0,0,1-6.75,7.09,22.81,22.81,0,0,1-7.79,3.46A40.24,40.24,0,0,1,3398.25,1681.44Zm-5.36-19.55a19.85,19.85,0,0,0,4.93-.52,6,6,0,0,0,3.29-2.16,18,18,0,0,0,2-3,13.8,13.8,0,0,0,1-4.67q0.26-3.28.35-5.45t0.09-7v-55.43a99.6,99.6,0,0,0-.43-10,40.66,40.66,0,0,0-1.56-7.79,10.41,10.41,0,0,0-3.55-5.45,9.81,9.81,0,0,0-6.14-1.76q-12.63,0-12.63,25.08v60.64q0,1.65.17,4.5a21,21,0,0,0,.52,4.07q0.35,1.21,1,3.11a6,6,0,0,0,1.47,2.68,16.06,16.06,0,0,0,2.25,1.64,9.17,9.17,0,0,0,3.2,1.21,21.66,21.66,0,0,0,4,.3h0Z"/>
  <path d="M3458.8,1682.13v-105h-14.19v-16.27a45.25,45.25,0,0,0,12.71-1.64,21,21,0,0,0,9.69-6.05,15.84,15.84,0,0,0,4.07-11.16h10.55v140.13H3458.8Z"/>
  <path d="M3498.93,1541.48h76.12v19l-43.94,121.62h-22.66l42-120.41h-51.58v-20.24Z"/>
  <polygon class="cls-3" points="3486.91 1426.15 3303.53 1479.07 3433.97 1622.25 3486.91 1426.15"/>
  <polygon class="cls-3" points="1563.02 461.64 1516.09 623.35 1684.34 593.52 1563.02 461.64"/>
  <polygon class="cls-3" points="2917.02 225.64 2870.09 387.35 3038.34 357.52 2917.02 225.64"/>
  <polygon class="cls-3" points="64.01 1721.75 153.38 1864.45 243.18 1719.07 64.01 1721.75"/>
  <polygon class="cls-3" points="2231.02 2098.64 2184.09 2260.35 2352.34 2230.52 2231.02 2098.64"/>
  <rect class="cls-7" x="2904.91" y="1914.67" width="524.64" height="291.19"/>
  <rect class="cls-8" x="263.21" y="111.56" width="805.25" height="306.76"/>
  <path class="cls-3" d="M106.87,339v22H79.29V493.1H54.4v-132H27.23v-22h79.64V339Z"/>
  <path class="cls-3" d="M172.2,339h25.27V493.1H172.2V425.84H144.08V493.1H119V339h25.08v65.74H172.2V339h0Z"/>
  <path class="cls-3" d="M283.73,363.52H241.55v41h31.16v24.32H241.55v39.52h43.89l-0.57,24.74h-68.4V339h67.26v24.51h0Z"/>
  <path class="cls-3" d="M393,339.2a38.76,38.76,0,0,1,17.38,3.8,33.6,33.6,0,0,1,12.35,10.07,46.53,46.53,0,0,1,7,13.77,51.7,51.7,0,0,1,2.38,15.68q0,26.6-9.69,39.33t-32.11,12.73h-8v58.71H357.45V339.2H393Zm-10.64,73h8a22.94,22.94,0,0,0,6.27-.76,17.21,17.21,0,0,0,4.46-1.9,9,9,0,0,0,3-3.42,25.71,25.71,0,0,0,1.81-4,27,27,0,0,0,1-5.13,52.67,52.67,0,0,0,.38-5.51v-8.17q0-5.13-.19-7.69a36.16,36.16,0,0,0-1-6,10.18,10.18,0,0,0-2.56-5,15,15,0,0,0-4.94-2.85,23.16,23.16,0,0,0-8.17-1.23h-8V412.2h-0.06Z"/>
  <path class="cls-3" d="M507.87,363.52H465.74v41h31.13v24.32H465.74v39.52h43.89l-0.57,24.7h-68.4v-154h67.21v24.51h0v-0.05Z"/>
  <path class="cls-3" d="M577.87,385.18q0-7-.29-11.21a42.85,42.85,0,0,0-1.42-8.36,11.35,11.35,0,0,0-3.52-6.08,9.91,9.91,0,0,0-6.37-1.9,15.12,15.12,0,0,0-5.32.85,7,7,0,0,0-3.61,3,37.64,37.64,0,0,0-2.18,4.08,18.16,18.16,0,0,0-1.14,5.79q-0.28,3.9-.38,6.27t-0.09,7.31v60.42q0,13.87,2.28,19.67t10.07,5.8a17.25,17.25,0,0,0,5-.67,6.06,6.06,0,0,0,3.42-2.57,30,30,0,0,0,2-3.51,17.89,17.89,0,0,0,1.14-5.32q0.38-3.7.38-6.08V444l24.89,1.71a88,88,0,0,1-1,20.23q-1.66,8.7-4.7,13.7a26.67,26.67,0,0,1-7.5,8.17,26.4,26.4,0,0,1-8.64,4.18,37.66,37.66,0,0,1-9.12,1h-9.9a38.82,38.82,0,0,1-9.22-1,29.2,29.2,0,0,1-8.93-4.08,26.61,26.61,0,0,1-7.85-8.07,45.2,45.2,0,0,1-5.32-13.58,84.52,84.52,0,0,1-2.09-20V382.52q0-23,9.21-33.25t25-10.26h6.84q15.2,0,24.22,11.12t9,33.15Z"/>
  <path class="cls-3" d="M700.39,339.2l-29.83,77,31.16,77.14H675.31l-26.22-60H647v60H621.73V339.2H647v66.69l27.17-66.69h26.22Z"/>
  <path class="cls-3" d="M772,339h25.27V493.1H772V425.84H743.87V493.1h-25V339h25v65.74H772V339h0Z"/>
  <path class="cls-3" d="M843.08,339h31.73L899.32,493.1H875.57l-5.7-32.68H845.55l-5.68,32.68H816.29Zm4.37,106H868l-10.45-64.6Z"/>
  <path class="cls-3" d="M914.87,339.2H947l24.32,95.19,23.57-95.19h32.49V492.53h-26.22l1.52-87.4L980.87,477H962.06l-23.37-71.82,1.52,87.4H914.87V339.2Z"/>
  <circle class="cls-3" cx="2511.55" cy="223.39" r="34.77"/>
  <circle class="cls-3" cx="2391.55" cy="1466.39" r="34.77"/>
  <circle class="cls-3" cx="96.19" cy="2018.2" r="34.77"/>
  <path class="cls-9" d="M1008.37,788.83h156.9l121.2,762H1169l-28.17-161.63H1020.59L992.4,1550.81H875.87ZM1030,1313.1h101.47l-51.67-319.44Z"/>
  <path class="cls-10" d="M263.21,732.38c11.66-53.73-19.77-104.72-38.34-65.72s-52-8-52-8c-61.77-40-26,96.31-73,73.72C28.18,697.93,19.65,745,59.87,777c41,32.59,57.47,41.36-2,56.81-84,21.83,37.87,67,41,79.3,8,31.52-80,23.53-70,60.19,9.23,33.84,111,4.61,81,33.07-54.56,51.76-99,32.27-46,72.78,42.35,32.37,36,24.27-16,54.69-46.74,27.34-62.31,35.13,39,58.79,51,11.92-29.57,68.22-19,88.16,21,39.78,80.42-11.34,97,32.28,27,70.9,87,59.56,67-6.44-21.1-69.63,72.56,11.87,85-15.19,17-37-67-76.64-35-107.81,26.56-25.87,51,6,51,6"/>
</svg>
