<svg id="Layer_1" data-name="Layer 1" xmlns="http://www.w3.org/2000/svg" xmlns:xlink="http://www.w3.org/1999/xlink" viewBox="0 0 1741 2285.95">
  <defs>
    <style>
      .cls-1 {
        fill: none;
      }

      .cls-2 {
        fill: #333;
      }

      .cls-3 {
        fill: #fff;
      }

      .cls-4 {
        fill: url(#zigzag_up);
      }

      .cls-5 {
        fill: url(#hatching);
      }

      .cls-6 {
        fill: url(#wave);
      }
    </style>
    <pattern id="zigzag_up" data-name="zigzag up" width="133" height="112" patternTransform="translate(266)" patternUnits="userSpaceOnUse" viewBox="0 0 133 112">
      <rect class="cls-1" width="133" height="112"/>
      <polygon points="99.58 88.8 66.13 110.25 33.06 88.8 0 110.25 0 135.2 33.08 114.23 66.13 135.2 99.56 114.23 133 135.2 133 110.25 99.58 88.8"/>
      <polygon points="99.58 32.8 66.13 54.25 33.06 32.8 0 54.25 0 79.2 33.08 58.23 66.13 79.2 99.56 58.23 133 79.2 133 54.25 99.58 32.8"/>
      <polygon points="99.58 -23.2 66.13 -1.75 33.06 -23.2 0 -1.75 0 23.2 33.08 2.23 66.13 23.2 99.56 2.23 133 23.2 133 -1.75 99.58 -23.2"/>
    </pattern>
    <pattern id="hatching" data-name="hatching" width="102" height="108" patternTransform="translate(408)" patternUnits="userSpaceOnUse" viewBox="0 0 102 108">
      <rect class="cls-1" width="102" height="108"/>
      <polyline class="cls-2" points="196.89 56.56 196.89 77.55 64.89 147.44 64.89 126.56 196.89 56.62"/>
      <polyline class="cls-2" points="94.89 56.56 94.89 77.55 -37.11 147.44 -37.11 126.56 94.89 56.62"/>
      <polyline class="cls-2" points="196.89 2.56 196.89 23.55 64.89 93.44 64.89 72.56 196.89 2.62"/>
      <polyline class="cls-2" points="94.89 2.56 94.89 23.55 -37.11 93.44 -37.11 72.56 94.89 2.62"/>
      <polyline class="cls-2" points="196.89 -51.44 196.89 -30.45 64.89 39.44 64.89 18.57 196.89 -51.38"/>
      <polyline class="cls-2" points="94.89 -51.44 94.89 -30.45 -37.11 39.44 -37.11 18.57 94.89 -51.38"/>
    </pattern>
    <pattern id="wave" data-name="wave" width="81" height="56.67" patternTransform="translate(324)" patternUnits="userSpaceOnUse" viewBox="0 0 81 56.67">
      <rect class="cls-1" width="81" height="56.67"/>
      <path class="cls-2" d="M81,26.2V46.67c-22.67,0-24.87-15.53-40.5-15.53C25.13,31.14,13.83,46.67,0,46.67V26.2c12.5,0,20.5-14.89,40.5-14.89C61.75,11.31,66.83,26.17,81,26.2Z"/>
    </pattern>
  </defs>
  <title>logo</title>
  <path class="cls-3" d="M315.25,772.25q0-34.75-1.41-55.43a211.34,211.34,0,0,0-7-41.34q-5.64-20.65-17.38-30.07T257.95,636q-15,0-26.31,4.22a34.84,34.84,0,0,0-17.85,15A186.92,186.92,0,0,0,203,675.48q-4.22,9.4-5.63,28.65t-1.88,31Q195,746.9,195,771.31v298.78q0,68.6,11.27,97.25t49.8,28.66A85.22,85.22,0,0,0,281,1192.7,30,30,0,0,0,297.87,1180a147.93,147.93,0,0,0,9.87-17.38q3.74-8,5.63-26.31t1.88-30.06v-42.75L438.34,1072q2.82,57.33-5.17,100.06t-23,67.65q-15,24.91-37.11,40.4t-42.75,20.67a186.34,186.34,0,0,1-45.1,5.17H236.33a192.08,192.08,0,0,1-45.57-5.17q-21.13-5.18-44.16-20.2t-39-39.93q-16-24.89-26.31-67.18T71,1074.79V759.1q0-113.68,45.56-164.42t123.55-50.74h33.82q75.16,0,119.8,55t44.63,164Z"/>
  <path class="cls-3" d="M688.59,1157.41H637.85q-171,0-171-226.43V614.35q0-112.74,49.8-164.42t129.66-51.67h33.82q76.11,0,121.2,53.55t45.1,162.54V931q0,57.32-9.86,99.13t-24.43,65.77a120.17,120.17,0,0,1-36.64,38.52q-22.09,14.58-42.28,18.79A218.07,218.07,0,0,1,688.59,1157.41Zm-29.13-106.17q16,0,26.78-2.82a32.73,32.73,0,0,0,17.85-11.74,97.16,97.16,0,0,0,10.81-16.45q3.75-7.5,5.17-25.37t1.88-29.6q0.46-11.74.47-38.05V626.56a540.45,540.45,0,0,0-2.35-54.49,220.46,220.46,0,0,0-8.46-42.28q-6.12-19.73-19.26-29.59t-32.88-9.87q-68.6,0-68.59,136.23V955.88q0,8.94.94,24.43t2.82,22.08q1.87,6.59,5.17,16.91c2.19,6.9,4.84,11.74,8,14.57a87.28,87.28,0,0,0,12.21,8.92,49.92,49.92,0,0,0,17.38,6.58A117.74,117.74,0,0,0,659.46,1051.24Z"/>
  <path class="cls-3" d="M993.24,285.69h156.9l121.2,762H1153.9l-28.19-161.61H1005.45l-28.19,161.61H860.76ZM1014.85,810h101.47l-51.67-319.45Z"/>
  <path class="cls-3" d="M1408.75,613.16V832.07h208.58V943.88h-332.6v-762h124V613.16Z"/>
  <path class="cls-3" d="M330.79,1765.55v218.91H539.37v111.81H206.77v-762h124v431.25Z"/>
  <path class="cls-3" d="M595.57,1994.43v-762H717.72v762H595.57Z"/>
  <path class="cls-3" d="M1164,1119.8h117.44v762h-124l-197.3-427.49-0.94,427.49H830.42v-762h125.9L1164,1588.63V1119.8Z"/>
  <path class="cls-3" d="M1709.5,1098.63H1500.92v202.94H1655v120.27H1500.92v195.43h217l-2.82,122.14H1376.9v-762h332.6v121.2Z"/>
  <g>
    <path d="M988.79,328.66h144.66l-5.79-4.4,3,18.72,8.16,51.27,12,75.49,14.65,92.08,16.12,101.35L1197.77,765l15.1,95,12.77,80.28,9.23,58c1.43,9,2.16,18.49,4.35,27.35,0.09,0.38.13,0.79,0.19,1.18l5.79-7.6H1136.91l5.79,4.4-22.76-130.49-3.23-18.5c-0.45-2.56-3.34-4.4-5.79-4.4H1000.05c-2.42,0-5.34,1.85-5.79,4.4l-22.76,130.49-3.23,18.5,5.79-4.4H866.66l5.79,7.6,3.27-18.79,8.89-51.14,13.15-75.64,16-92.29L931.29,688.3l17.74-102,16.54-95.16,14-80.43,10.06-57.85c1.59-9.14,3.25-18.26,4.77-27.41,0.07-.39.14-0.79,0.2-1.18,1.31-7.55-10.25-10.8-11.57-3.19l-3.27,18.79L970.85,391,957.7,466.64l-16,92.29L924.16,659.51l-17.74,102L889.88,856.7l-14,80.43L865.84,995c-1.59,9.14-3.25,18.26-4.77,27.41-0.07.39-.14,0.79-0.2,1.18-0.66,3.78,1.59,7.6,5.79,7.6H974.06c2.42,0,5.34-1.85,5.79-4.4l22.76-130.49,3.23-18.5-5.79,4.4h110.87l-5.79-4.4,22.76,130.49,3.23,18.5c0.45,2.56,3.34,4.4,5.79,4.4h108.28c4.24,0,6.39-3.81,5.79-7.6l-3-18.72-8.16-51.27-12-75.49L1213.19,786l-16.12-101.35-16.2-101.82-15.1-95L1153,407.61l-9.23-58c-1.44-9.07-2.44-18.36-4.35-27.35-0.08-.39-0.13-0.79-0.19-1.18-0.41-2.56-3.37-4.4-5.79-4.4H988.79C981.07,316.66,981.06,328.66,988.79,328.66Z"/>
    <path d="M1008.72,812h93.55c4.23,0,6.4-3.82,5.79-7.6l-16.13-99.71L1066.25,546l-5.84-36.11c-0.92-5.71-10.68-5.75-11.57,0l-15.54,99.71L1008.56,768.3l-5.63,36.11c-1.18,7.55,10.38,10.81,11.57,3.19L1030,707.89l24.74-158.69,5.63-36.11h-11.57L1065,612.8l25.67,158.69,5.84,36.11,5.79-7.6h-93.55C1001,800,1001,812,1008.72,812Z"/>
  </g>
  <path class="cls-4" d="M1373.18,632.54V834.36h192.3V937.44H1258.84V235h114.34V632.54Z"/>
  <path class="cls-5" d="M345.52,1730v201.82h192.3v103.08H231.18V1332.4H345.52V1730Z"/>
  <path class="cls-6" d="M1623.6,1105.79H1431.3v187.1h142.06v110.88H1431.3v180.17h200.09l-2.6,112.61H1317V994H1623.6v111.74Z"/>
  <path d="M94.54,973.39m163.84,259.05M104.84,848.15c20-13.6,44.87-15.29,66.62-25.47,34.44-16.12,32.59-43.26.18-60.2C151,751.7,126.41,750.2,108.27,734.92c-4.88-4.11-9.3-9.66-10.29-13.72,0.06-6.84,4.38-12.33,11.15-15.44,22-10.12,51-4.2,73.77-12.87,60.52-23-16.47-65.61-2.57-78.06,6.56-5.88,23.12,10.44,24.88,12.44,13.73,15.59,21.48,36,47.18,27.88,18.2-5.73,23.54-28.94,38.38-36,17.77-8.48,17.53,11.95,15.23,30-1.76,13.82-15.2,33.45-9,46.92,10.53,22.88,31.18,3.78,48,2.84,17.45-1,13,4.79,6,24-2.41,6.65-11.7,21.93-11.15,21.44-12.25,12.25-3,31.07,14.58,22.3,14.14-7,22.42-37,25.33-50.08,9.74-43.62-12.91-53.91-51.07-39.13C329.23,651,341.37,612.78,317,593c-25.52-20.73-43.08,11.31-61.87,23.27-10.78,6.86-15.16,10.27-23.37,5.41-5-3-8.07-12.74-12.87-17.16a59.08,59.08,0,0,0-25.73-13.73c-42.9-10.61-53.18,21.48-30,50.61,17.13,21.55,19.55,26-9.44,30.88-18.35,3.07-39.89,1.28-56.81,10.3-32.22,17.17-29.66,53.32-3,73.9,19.43,15,56.54,14.91,68.32,36.76-24.42,11.6-74.62,22.1-84.52,48.6-19.32,51.7,83.78,39.57,77.89,71.18-1.71,9.17-41,18.38-50.7,22.84-15.79,7.25-42.43,19.27-38.3,41,3.8,20,31.39,26.76,47.58,32.81,19,7.09,32.62,17.35,50.28,26.17-9.43,6.59-18.64,14.29-28.61,20-16,9.17-40.27,11.93-52.91,26-34,37.91,50.43,52.67,71.36,58.65-13,12.39-31.63,25.53-39.2,42.35-16.54,36.78,22.93,50.7,49.76,31.52,5.68-4.06,22.44-26.79,29.17-26.59,12.28,0.36,12.93,23.51,15.09,31.41,7.12,26,22.09,61,54.89,42,14.77-8.52,19.62-21.38,21.8-37.42,0.76-5.64-1.24-14.82,2.86-18.72,8.62-8.18,15.29,1.34,24.87,5.52,15,6.54,30.49,9.51,46.9,6.34,12.6-2.44,28.62-8.73,30.83-23.53,2.8-18.8-20.77-31.44-32.61-42.28-9.31-8.52-23.75-22.28-27.38-30.27,0-.82-2.26-3.7-0.86-2.57,0.32-.54,1.47-4.09,0,0,0-10.19,37.49-9.44,45.46-9.44,6.76,1.37,12.69,3,19.73,7.72,0.47-.84,4.17,6.46,11.58,3.81,15.62-5.59,10.39-18.8.52-27-21-17.55-72.56-15.89-92.74,2.92-26.47,24.67,6.56,54.41,24.88,71.78,14.06,13.33,24.28,26-.86,24-12.51,0-30.36-16.91-45.85-18.58-33.43-3.6-31.43,34.82-33.93,51.18,0,10-12.15,12.66-18.45,8.58-9.15-5.93-11.35-41.31-15.39-51.41-25.92-64.85-61.22,26.87-87.12,12,11-14.61,69-48.65,54.44-69.26-8.91-12.6-38.66-6.58-51-8.8-13.43-2.41-24.94-6.79-36-15.44,21.34-23.19,91.41-22.68,82.88-68-6.67-35.41-93.1-41.7-93-60.91,0.15-20.38,84.61-27,92.19-53.92,12-42.71-91.33-53-82.11-70.25M155.45,783"/>
  <g>
    <rect class="cls-2" x="808.2" y="745.39" width="17.08" height="81.11" transform="translate(-184.96 255.5) rotate(-16)"/>
    <rect class="cls-2" x="463.18" y="566.4" width="81.11" height="17.08" transform="translate(-246.07 426.28) rotate(-37.56)"/>
    <rect class="cls-2" x="463.18" y="980.4" width="81.11" height="17.08" transform="translate(-606.11 990.48) rotate(-63.09)"/>
    <rect class="cls-2" x="521.2" y="597.39" width="17.08" height="81.11" transform="translate(-21.98 18.91) rotate(-2)"/>
    <rect class="cls-2" x="521.18" y="535.4" width="81.11" height="17.08" transform="translate(-24.32 1061.58) rotate(-85.53)"/>
    <rect class="cls-2" x="463.18" y="855.4" width="81.11" height="17.08" transform="translate(-371.42 1347.93) rotate(-88.7)"/>
    <rect class="cls-2" x="444.18" y="641.4" width="81.11" height="17.08" transform="translate(-310.7 807.03) rotate(-64.45)"/>
    <rect class="cls-2" x="531.2" y="782.39" width="17.08" height="81.11" transform="translate(-114.78 87.99) rotate(-8.43)"/>
    <rect class="cls-2" x="444.18" y="727.4" width="81.11" height="17.08" transform="translate(-389.07 621.75) rotate(-49.18)"/>
    <rect class="cls-2" x="477.18" y="494.4" width="81.11" height="17.08" transform="translate(-152.54 770.77) rotate(-65.95)"/>
    <rect class="cls-2" x="458.2" y="903.39" width="17.08" height="81.11" transform="translate(-32.72 16.9) rotate(-2)"/>
    <rect class="cls-2" x="436.18" y="814.4" width="81.11" height="17.08" transform="translate(-428.2 1115.52) rotate(-77.83)"/>
    <rect class="cls-2" x="713.18" y="805.4" width="81.11" height="17.08" transform="translate(-160.74 1441.92) rotate(-81.68)"/>
    <rect class="cls-2" x="747.18" y="701.4" width="81.11" height="17.08" transform="translate(-269.49 627.4) rotate(-37.56)"/>
    <rect class="cls-2" x="592.18" y="1142.4" width="81.11" height="17.08" transform="translate(-668 968.98) rotate(-53.24)"/>
    <rect class="cls-2" x="728.2" y="614.39" width="17.08" height="81.11" transform="translate(-22.45 26.16) rotate(-2)"/>
    <rect class="cls-2" x="725.2" y="440.39" width="17.08" height="81.11" transform="translate(-22.81 36.75) rotate(-2.83)"/>
    <rect class="cls-2" x="747.18" y="617.4" width="81.11" height="17.08" transform="translate(144.07 1399.26) rotate(-88.7)"/>
    <rect class="cls-2" x="500.18" y="710.4" width="81.11" height="17.08" transform="translate(-341.1 896.8) rotate(-64.46)"/>
    <rect class="cls-2" x="747.18" y="1065.4" width="81.11" height="17.08" transform="translate(-449.59 1566.79) rotate(-75.46)"/>
    <rect class="cls-2" x="549.18" y="453.4" width="81.11" height="17.08" transform="translate(-145.34 606.31) rotate(-49.18)"/>
    <rect class="cls-2" x="713.18" y="547.4" width="81.11" height="17.08" transform="translate(36.66 1158.42) rotate(-76.45)"/>
    <rect class="cls-2" x="738.2" y="973.39" width="17.08" height="81.11" transform="translate(-34.99 26.72) rotate(-2)"/>
    <rect class="cls-2" x="738.18" y="868.4" width="81.11" height="17.08" transform="translate(-242.63 1453.36) rotate(-77.83)"/>
    <rect class="cls-2" x="481.2" y="1058.39" width="17.08" height="81.11" transform="translate(-483.51 391.62) rotate(-29.97)"/>
    <rect class="cls-2" x="510.18" y="940.4" width="81.11" height="17.08" transform="translate(-413.32 1472.77) rotate(-88.39)"/>
    <rect class="cls-2" x="678.18" y="1164.4" width="81.11" height="17.08" transform="translate(-519.87 574.42) rotate(-32.71)"/>
    <rect class="cls-2" x="579.2" y="1064.39" width="17.08" height="81.11" transform="translate(-596.35 1510.24) rotate(-80.89)"/>
    <rect class="cls-2" x="672.18" y="1104.4" width="81.11" height="17.08" transform="translate(-587.41 875.77) rotate(-47.03)"/>
    <rect class="cls-2" x="647.2" y="443.39" width="17.08" height="81.11" transform="translate(30.01 1006.1) rotate(-76.27)"/>
    <rect class="cls-2" x="793.2" y="474.39" width="17.08" height="81.11" transform="translate(-148.93 450.25) rotate(-28.82)"/>
    <rect class="cls-2" x="793.2" y="937.39" width="17.08" height="81.11" transform="translate(-381.34 531.31) rotate(-29.97)"/>
    <rect class="cls-2" x="489.18" y="1038.4" width="81.11" height="17.08" transform="translate(-602.46 1354.88) rotate(-78.38)"/>
    <rect class="cls-2" x="788.18" y="896.4" width="81.11" height="17.08" transform="matrix(0.03, -1, 1, 0.03, -104.49, 1701.69)"/>
    <rect class="cls-2" x="667.2" y="399.39" width="17.08" height="81.11" transform="translate(-73.95 736.81) rotate(-54.67)"/>
    <rect class="cls-2" x="520.18" y="1133.4" width="81.11" height="17.08" transform="translate(-153.97 89.49) rotate(-8.03)"/>
  </g>
  <path d="M1216,1765.21v-597.4c0-13.52-12-26.47-26-25.84s-26,11.36-26,25.84V1711q-13.5-29.69-26.88-59.39l-37.1-82-40.57-89.68-41.21-91.08-38.47-85-32.53-71.9-23.31-51.53c-3.69-8.17-7.13-16.52-11.11-24.55-0.17-.34-0.32-0.7-0.48-1.05-2.23-4.92-7.65-8.59-12.36-10.57-5.14-2.17-11.46-3.07-16.92-1.3-10.86,3.52-19.06,13.19-19.06,24.92V1769.5c0,8.13,0,16.28.09,24.41,0,0.35,0,.7,0,1,0,13.52,12,26.47,25.93,25.84S916,1809.45,916,1795V1287.3c3,5.29,4.72,10.57,7.11,15.86q17.63,39,35.24,78,19.56,43.23,39.1,86.46l39.75,87.88,37.87,83.73,32.81,72.52L1133,1767.3l14.46,32c0.77,1.69,1.44,3.47,2.31,5.12,7.59,14.31,25.2,20.94,40.51,16.56s25.15-18.38,25.51-33.91C1216,1779.76,1216,1772.48,1216,1765.21ZM1197.78,1787c-0.28,7.56-4.74,14.2-12.17,16.47a17.21,17.21,0,0,1-20.14-8.24c-0.87-1.64-1.58-3.42-2.34-5.12l-14.48-32-25.16-55.61L1090.68,1630l-37.88-83.73L1013,1458.44,973.93,1372l-35.27-78c-9.62-21.27-19.13-42.53-28.75-63.8-4-8.86-7.91-17.72-11.91-26.58V1795c0,11-15.73,11-15.73,0a9.73,9.73,0,0,1-.14-1c-0.21-8.12-.14-16.28-0.14-24.41V1167.81c0-7.21,11.29-11.19,14.58-3.91,0.56,1.24,1.19,2.48,1.75,3.72q6.6,14.6,13.24,29.19,12,26.51,24,53l31.81,70.3,37.12,82,39.31,86.88,39.05,86.32,35.67,78.84,29.81,65.88,20.9,46.19c3.11,6.87,5.9,14,9.38,20.73,0.08,0.15.13,0.32,0.21,0.47a3.55,3.55,0,0,1,.48.86c0.57,0.77.25,0.37,1.32,0.45a4.93,4.93,0,0,1,1-.32,2,2,0,0,0,.44-1.29,4.22,4.22,0,0,0,0-.44c0-2.55,0-5.11,0-7.66V1168c0-10,16-10,16,0v597.26C1198,1772.47,1198.05,1779.78,1197.78,1787Z"/>
  <g>
    <polygon class="cls-2" points="734.91 1878.87 623 1822.36 623 1938.79 734.91 1878.87"/>
    <polygon class="cls-2" points="623 1707.71 623 1822.36 734.93 1762.44 624.74 1706.79 734.92 1647.79 623 1591.28 623 1705.93 623 1707.71"/>
    <polygon class="cls-2" points="734.91 1531.36 623 1474.85 623 1591.28 734.91 1531.36"/>
    <polygon class="cls-2" points="623 1358.41 623 1474.85 734.91 1414.93 623 1358.41"/>
    <polygon class="cls-2" points="623 1241.98 623 1358.41 734.91 1298.5 623 1241.98"/>
  </g>
  <g>
    <path class="cls-3" d="M174,267.75v13.34H157.37V361H142.3V281.09H125.86V267.75H174Z"/>
    <path class="cls-3" d="M213.6,267.75H228.9V361H213.6V320.3h-17V361H181.4V267.75h15.18v39.79h17V267.75Z"/>
    <path class="cls-3" d="M281.11,282.58H255.58v24.84h18.86v14.72H255.58v23.92h26.56l-0.35,15H240.4V267.75h40.71v14.83Z"/>
    <path class="cls-3" d="M347.23,267.86a23.46,23.46,0,0,1,10.52,2.3,20.33,20.33,0,0,1,7.48,6.1,28.16,28.16,0,0,1,4.25,8.34,31.28,31.28,0,0,1,1.44,9.49q0,16.1-5.86,23.81t-19.44,7.71h-4.83v35.53H325.72V267.86h21.5ZM340.79,312h4.83a13.89,13.89,0,0,0,3.79-.46,10.4,10.4,0,0,0,2.7-1.15,5.45,5.45,0,0,0,1.84-2.07,15.6,15.6,0,0,0,1.09-2.42,16.24,16.24,0,0,0,.57-3.1,31.77,31.77,0,0,0,.23-3.33v-4.95q0-3.1-.11-4.66a22,22,0,0,0-.63-3.62,6.17,6.17,0,0,0-1.55-3,9.09,9.09,0,0,0-3-1.72,14,14,0,0,0-4.94-.75h-4.83V312Z"/>
    <path class="cls-3" d="M416.8,282.58H391.27v24.84h18.86v14.72H391.27v23.92h26.56l-0.35,15h-41.4V267.75H416.8v14.83Z"/>
    <path class="cls-3" d="M459.12,295.69q0-4.25-.17-6.78a25.92,25.92,0,0,0-.86-5.06,6.87,6.87,0,0,0-2.13-3.68,6,6,0,0,0-3.85-1.15,9.14,9.14,0,0,0-3.22.52,4.26,4.26,0,0,0-2.19,1.84,22.83,22.83,0,0,0-1.32,2.47,11,11,0,0,0-.69,3.51q-0.17,2.36-.23,3.79t-0.06,4.43v36.57q0,8.4,1.38,11.9t6.09,3.51a10.45,10.45,0,0,0,3-.4A3.67,3.67,0,0,0,457,345.6a18.14,18.14,0,0,0,1.21-2.13,10.83,10.83,0,0,0,.69-3.22q0.23-2.24.23-3.68v-5.23l15.06,1a53.22,53.22,0,0,1-.63,12.25,25.12,25.12,0,0,1-2.82,8.28,16.15,16.15,0,0,1-4.54,4.94,16,16,0,0,1-5.23,2.53,22.78,22.78,0,0,1-5.52.63h-6a23.48,23.48,0,0,1-5.58-.63,17.67,17.67,0,0,1-5.41-2.47,16.11,16.11,0,0,1-4.77-4.89,27.35,27.35,0,0,1-3.22-8.22,51.14,51.14,0,0,1-1.27-12.07V294.08q0-13.91,5.58-20.12t15.12-6.21h4.14a17.91,17.91,0,0,1,14.66,6.73q5.46,6.73,5.46,20.07Z"/>
    <path class="cls-3" d="M533.3,267.86l-18.06,46.57,18.86,46.69h-16l-15.87-36.34H501v36.34H485.69V267.86H501v40.36l16.45-40.36H533.3Z"/>
    <path class="cls-3" d="M576.65,267.75h15.29V361H576.65V320.3h-17V361H544.45V267.75h15.18v39.79h17V267.75Z"/>
    <path class="cls-3" d="M619.66,267.75h19.21L653.7,361H639.32l-3.45-19.78H621.15L617.7,361H603.44Zm2.65,64.17h12.42l-6.33-39.1Z"/>
    <path class="cls-3" d="M663.13,267.86h19.43l14.72,57.61,14.26-57.61h19.67v92.8H715.34l0.92-52.9L703,351.24H691.65L677.5,307.77l0.92,52.9H663.13v-92.8Z"/>
  </g>
  <g>
    <path d="M880.58,2101.86h-6.21q-20.93,0-20.93-27.72v-38.75q0-13.8,6.09-20.12t15.87-6.32h4.14q9.31,0,14.83,6.55t5.52,19.89v38.75a53.39,53.39,0,0,1-1.21,12.13,28.21,28.21,0,0,1-3,8,14.7,14.7,0,0,1-4.48,4.71,15.15,15.15,0,0,1-5.18,2.3A26.73,26.73,0,0,1,880.58,2101.86Zm-3.57-13a13.19,13.19,0,0,0,3.28-.35,4,4,0,0,0,2.19-1.44,11.93,11.93,0,0,0,1.32-2,9.17,9.17,0,0,0,.63-3.11q0.17-2.18.23-3.62t0.06-4.66v-36.8a66.13,66.13,0,0,0-.29-6.67,27,27,0,0,0-1-5.17,6.93,6.93,0,0,0-2.36-3.62,6.52,6.52,0,0,0-4-1.21q-8.4,0-8.39,16.67v40.31q0,1.09.12,3a13.88,13.88,0,0,0,.34,2.7c0.15,0.54.36,1.23,0.63,2.07a4,4,0,0,0,1,1.78,10.73,10.73,0,0,0,1.49,1.09,6.09,6.09,0,0,0,2.13.8A14.42,14.42,0,0,0,877,2088.86Z"/>
    <path d="M932.9,2008.94a23.44,23.44,0,0,1,10.52,2.3,20.33,20.33,0,0,1,7.48,6.09,28.15,28.15,0,0,1,4.25,8.34,31.27,31.27,0,0,1,1.44,9.49q0,16.1-5.87,23.8t-19.43,7.71h-4.83v35.54H911.4v-93.26H932.9Zm-6.44,44.16h4.83a13.87,13.87,0,0,0,3.79-.46,10.35,10.35,0,0,0,2.7-1.15,5.44,5.44,0,0,0,1.84-2.07,15.62,15.62,0,0,0,1.09-2.42,16.28,16.28,0,0,0,.57-3.1,31.94,31.94,0,0,0,.23-3.33v-4.95q0-3.11-.12-4.66a22,22,0,0,0-.63-3.62,6.16,6.16,0,0,0-1.55-3,9.09,9.09,0,0,0-3-1.72,14,14,0,0,0-4.94-.75h-4.83v31.28Z"/>
    <path d="M1008.69,2023.66H983.16v24.84H1002v14.72H983.16v23.92h26.56l-0.35,15H968v-93.26h40.71v14.83Z"/>
    <path d="M1061.93,2008.94h14.38v93.26h-15.18L1037,2049.88l-0.12,52.33H1021.1v-93.26h15.41l25.42,57.38v-57.38Z"/>
    <path d="M1087.8,2102.09v-93.26h15v93.26h-15Z"/>
    <path d="M1155.08,2008.94h14.38v93.26h-15.18l-24.15-52.33L1130,2102.2h-15.76v-93.26h15.41l25.42,57.38v-57.38Z"/>
    <path d="M1211.43,2067.82v-12.31H1226v46.58h-7.25l-2.18-9.43q0,3.91-4.26,6.67a15.38,15.38,0,0,1-8.39,2.76h-1.5a18.79,18.79,0,0,1-7.19-1.44,23.3,23.3,0,0,1-6.84-4.49,21.56,21.56,0,0,1-5.41-8.74,38.82,38.82,0,0,1-2.07-13.28V2035.5q0-13.8,6.15-20.24t15.81-6.44h4.14q9.2,0,14.43,6.84t5.23,20.18L1212,2037q0-4-.23-6.67a28.39,28.39,0,0,0-.92-5.12,6.5,6.5,0,0,0-2.24-3.62,6.3,6.3,0,0,0-3.85-1.15,8.16,8.16,0,0,0-4.66,1.21,7.08,7.08,0,0,0-2.64,3.74,21.79,21.79,0,0,0-1.09,5.12q-0.23,2.59-.23,6.5v36.57q0,8.17,1.72,11.79t6.67,3.62a6.78,6.78,0,0,0,2.93-.57,4.38,4.38,0,0,0,2-2,20.22,20.22,0,0,0,1.21-2.65,15.06,15.06,0,0,0,.63-3.85q0.17-2.59.17-4.2v-7.93Z"/>
    <path d="M1291.23,2035.85l-14.49-.92v-3.56a22.08,22.08,0,0,1,1.38-7.59,25.39,25.39,0,0,1,4-7.13,19.21,19.21,0,0,1,7.07-5.4,23.21,23.21,0,0,1,9.95-2.07h1.5q9.54,0,15.12,4.95t5.58,14.49v2.65q0,2.65-.17,4.83t-0.29,4a20.41,20.41,0,0,1-.58,3.62q-0.46,1.84-.69,2.93a13.43,13.43,0,0,1-1.09,2.87q-0.86,1.78-1.15,2.47a21.75,21.75,0,0,1-1.5,2.59l-1.61,2.53q-0.4.63-2,2.88t-2.07,2.93a106.06,106.06,0,0,1-6.79,8.34,93.32,93.32,0,0,0-8,10.35,15.69,15.69,0,0,0-2.93,8.34h28.87v12.42h-44.62v-13a21.45,21.45,0,0,1,.58-4.89,36.86,36.86,0,0,1,1.32-4.49,26.26,26.26,0,0,1,2.36-4.6q1.61-2.59,2.7-4.2t3.39-4.37q2.3-2.76,3.39-4t3.74-4q2.64-2.82,3.45-3.74a47.49,47.49,0,0,0,7.82-11.73,29.07,29.07,0,0,0,3.11-12.42q0-5.63-2-8.05t-6.33-2.41Q1291.23,2020.44,1291.23,2035.85Z"/>
    <path d="M1360,2101.86h-6.21q-20.93,0-20.93-27.72v-38.75q0-13.8,6.09-20.12t15.87-6.32H1359q9.31,0,14.83,6.55t5.52,19.89v38.75a53.39,53.39,0,0,1-1.21,12.13,28.24,28.24,0,0,1-3,8,14.7,14.7,0,0,1-4.49,4.71,15.15,15.15,0,0,1-5.17,2.3A26.74,26.74,0,0,1,1360,2101.86Zm-3.56-13a13.19,13.19,0,0,0,3.28-.35,4,4,0,0,0,2.18-1.44,11.94,11.94,0,0,0,1.32-2,9.18,9.18,0,0,0,.63-3.11q0.17-2.18.23-3.62t0.06-4.66v-36.8a66.1,66.1,0,0,0-.29-6.67,27,27,0,0,0-1-5.17,6.92,6.92,0,0,0-2.36-3.62,6.52,6.52,0,0,0-4-1.21q-8.4,0-8.4,16.67v40.31q0,1.09.12,3a14,14,0,0,0,.34,2.7q0.23,0.81.63,2.07a4,4,0,0,0,1,1.78,10.75,10.75,0,0,0,1.5,1.09,6.09,6.09,0,0,0,2.13.8A14.43,14.43,0,0,0,1356.44,2088.86Z"/>
    <path d="M1400.25,2102.32v-69.81h-9.43V2021.7a30.09,30.09,0,0,0,8.45-1.09,14,14,0,0,0,6.44-4,10.53,10.53,0,0,0,2.7-7.42h7v93.15h-15.18Z"/>
    <path d="M1426.93,2008.82h50.6v12.65l-29.21,80.85h-15.06l27.94-80h-34.27v-13.46Z"/>
  </g>
</svg>
