<svg xmlns="http://www.w3.org/2000/svg" viewBox="0 0 350.9 680.49">
  <title>c</title>
  <path d="M40.34,376.19h0ZM193.18,641.25h0ZM43.63,266c20-13.6,33.87-14.29,55.62-24.47,34.44-16.12,32.59-43.26.18-60.2C78.79,170.5,74.2,166,56.06,150.73c-4.88-4.11-9.3-9.66-10.29-13.72,0.06-6.84-3.62-12.33,3.15-15.44,22-10.12,45-6.2,67.77-14.87,60.52-23-18.47-63.61-4.57-76.06,6.56-5.88,23.12,10.44,24.88,12.44C150.72,58.66,160.47,77,186.17,69c15.87-5,21.07-27.76,38.38-36,17.77-8.48,17.53,11.95,15.23,30-1.76,13.82-15.2,33.45-9,46.92,10.53,22.88,28.18,6.78,45,5.84,25.62-1.44,15.8,2.24,9,21-2.41,6.65-35.7,18.93-35.15,18.44-12.25,12.25-3,31.07,14.58,22.3,14.14-7,46.42-31,49.33-44.08,9.74-43.62-12.91-56.91-51.07-42.13,0.51-26.45,16.65-61.67-7.69-81.44C229.3-10.91,205.74,20.13,187,32.09c-10.78,6.86-15.16,10.27-23.37,5.41-5-3-8.07-12.74-12.87-17.16A59.08,59.08,0,0,0,125,6.62C82.09-4,71.81,28.09,95,57.23c17.13,21.55,21.55,24-7.44,28.88-18.35,3.07-33.89,3.28-50.81,12.3-32.22,17.17-27.66,51.32-1,71.9,19.43,15,42.54,19.91,54.32,41.76-24.42,11.6-63.62,21.1-73.52,47.6-19.32,51.7,108.78,35.57,102.89,67.18-1.71,9.17-59,7.38-68.7,11.84-15.79,7.25-42.43,19.27-38.3,41,3.8,20,19.39,37.76,35.58,43.81,19,7.09,32.62,17.35,50.28,26.17-9.43,6.59-9.64,6.29-19.61,12-16,9.17-40.27,11.93-52.91,26-37.28,41.55,52.36,59.37,67.36,63.65-5.78,5.51-42.53,34.75-48.2,47.35-16.54,36.78,26.93,48.7,53.76,29.52,5.68-4.06,22.44-26.79,29.17-26.59,12.28,0.36,12.93,23.51,15.09,31.41,7.12,26,23.09,56,55.89,37,14.77-8.52,19.62-20.38,21.8-36.42,0.76-5.64-1.24-14.82,2.86-18.72,8.62-8.18,14.29,5.34,23.87,9.52,15,6.54,35.49,15.51,51.9,12.34,12.6-2.44,28.62-8.73,30.83-23.53,2.8-18.8-25.77-37.44-37.61-48.28-9.31-8.52-47.75-23.28-51.38-31.27,0-.82-2.26-3.7-0.86-2.57,0.32-.54,1.47-4.09,0,0,0-10.19,61.49,11.56,69.46,11.56,6.76,1.37,12.69,5,19.73,9.72,0.47-.84,4.17,6.46,11.58,3.81,15.62-5.59,10.39-18.8.52-27-21-17.55-96.56-38.89-116.74-20.08-26.47,24.67,30.56,55.41,48.88,72.78,14.06,13.33,29.28,32,4.14,30-12.51,0-34.36-26.91-49.85-28.58-33.43-3.6-30.43,29.82-32.93,46.18,0,10-13.15,16.66-19.45,12.58-9.15-5.93-12.35-36.31-16.39-46.41-25.92-64.85-65.22,28.87-91.12,14,10.42-13.85,81.26-49.07,63.44-74.26-8.91-12.6-34.66-11.58-47-13.8-13.43-2.41-24.94-6.79-36-15.44,21.34-23.19,82.41-14.68,73.88-60-6.67-35.41-81.1-52.7-81-71.91,0.15-20.38,102.61-16,110.19-42.92,12-42.71-116.33-49-107.11-66.25Zm39.61-64.19h0Z"/>
</svg>
