<svg xmlns="http://www.w3.org/2000/svg" viewBox="0 0 133.29 158.4"><title>pattern</title><rect x="0.29" y="23.2" width="133" height="112" style="fill:none"/><polygon points="99.73 112 66.34 133.45 33.17 112 0 133.45 0 158.4 33.23 137.43 66.34 158.4 99.67 137.43 133 158.4 133 133.45 99.73 112"/><polygon points="99.73 56 66.34 77.45 33.17 56 0 77.45 0 102.4 33.23 81.43 66.34 102.4 99.67 81.43 133 102.4 133 77.45 99.73 56"/><polygon points="99.73 0 66.34 21.45 33.17 0 0 21.45 0 46.4 33.23 25.43 66.34 46.4 99.67 25.43 133 46.4 133 21.45 99.73 0"/></svg>